<?xml version="1.0" encoding="UTF-8"?>
<svg width="725px" height="186px" viewBox="0 0 725 186" version="1.1" xmlns="http://www.w3.org/2000/svg" xmlns:xlink="http://www.w3.org/1999/xlink">
    <!-- Generator: Sketch 55.2 (78181) - https://sketchapp.com -->
    <title>Group</title>
    <desc>Created with Sketch.</desc>
    <g id="Page-1" stroke="none" stroke-width="1" fill="none" fill-rule="evenodd">
        <g id="Artboard" transform="translate(-44.000000, -20.000000)">
            <g id="Group" transform="translate(44.628000, 20.570000)">
                <path d="M723.943509,175 L724,3.04492011 L692.877223,3.03361471 L692.869691,15.9933675 C695.987994,17.851221 698.157249,20.7567079 698.153483,24.2086222 C698.153483,29.8688574 692.68892,34.4513114 685.951426,34.4513114 C679.217698,34.447543 673.753135,29.857552 673.756901,24.2010853 C673.756901,20.7454025 675.926156,17.8436841 679.048225,15.989599 L679.048225,15.8652397 L678.682917,12.1080796 L679.048225,8.2529394 L677.986195,6.13883027 L679.31185,2.26861622 L633.975937,3.01477238 L633.972171,15.9745252 C637.090474,17.8286102 639.037531,18.9516129 639.037531,22.4072957 C639.033765,28.0637624 634.631232,34.1347603 627.893739,34.1347603 C621.156245,34.1347603 615.695448,29.5410009 615.695448,23.8845342 C615.699214,20.4288514 617.032402,17.8248417 620.146939,15.9707567 L620.154471,3.01100392 C620.154471,3.01100392 612.912325,4.73696111 600.7178,4.73319264 C591.513532,4.72942418 577.251437,3.21073259 577.251437,3.21073259 L575.078416,15.9519144 C578.192954,17.8097679 580.362208,20.7152547 580.362208,24.1671691 C580.358442,29.8274043 574.118069,32.5633102 567.380576,32.5633102 C560.643082,32.5595418 555.961861,29.8198674 555.961861,24.1634007 C555.961861,20.7077178 558.134881,17.8022309 561.253185,15.9481459 L561.256951,2.98839313 L516.839958,2.97331926 L516.97177,3.93804643 L516.61776,5.10250226 L516.180896,6.22927344 L516.436989,8.06828459 L516.180896,9.57190232 L516.613994,11.4825143 L516.180896,15.9330721 C519.295433,17.7909255 521.464688,20.6964124 521.464688,24.1483268 C521.460922,29.8047935 516.000125,34.391016 509.262631,34.391016 C502.521371,34.3872475 497.06434,29.801025 497.06434,24.1407899 C497.068107,20.685107 499.237361,17.7833886 502.355664,15.9293036 L502.355664,15.8049442 L502.683312,10.2238468 L502.024251,7.46156165 L501.696603,2.9695508 L457.818157,3.63280072 L457.283376,15.9142297 C460.401679,17.7683147 462.567168,20.6738016 462.567168,24.1294845 C462.563402,29.7859512 457.102605,34.3721737 450.365111,34.3684052 C443.623851,34.3684052 438.16682,29.7784142 438.16682,24.1219475 C438.170586,20.6662647 440.339841,17.7645463 443.458144,15.9104613 L444.659519,2.37790172 C444.659519,2.37790172 438.257206,2.94694001 434.943067,2.94694001 C425.802822,2.94317154 398.389621,2.93563461 398.389621,2.93563461 L398.385855,15.8916189 C401.500393,17.7494724 403.669647,20.6549593 403.665881,24.1106421 C403.665881,29.7671088 398.205084,34.3533313 391.463824,34.3495629 C384.730097,34.3495629 379.2693,29.7595719 379.2693,24.0993368 C379.2693,20.6474224 381.44232,17.7457039 384.560624,15.8878505 L384.56439,2.92809768 C384.56439,2.92809768 366.219878,2.70575822 358.996562,2.70198975 C348.496767,2.69822128 338.576947,0 338.576947,0 L339.488335,15.8727766 C343.529325,16.6603859 344.772127,20.6323485 344.772127,24.0880314 C344.768361,29.744498 338.595777,32.3372023 331.858284,32.3372023 C325.12079,32.3334338 320.371779,29.7369611 320.371779,24.0804944 C320.375546,20.6248116 322.5448,17.7230932 325.663103,15.8690081 L322.823489,2.90925535 L280.594581,2.89418149 L280.590815,15.8501658 C283.709118,17.7117878 285.874607,20.6135062 285.874607,24.069189 C285.870841,29.7256557 280.410044,34.3118782 273.67255,34.3118782 C266.935056,34.3081097 261.474259,29.7181188 261.478025,24.0616521 C261.478025,20.6059692 263.64728,17.7042508 266.765583,15.8463973 L266.769349,2.88664456 L221.69706,2.87533916 L221.693294,15.8313235 C224.811598,17.689177 226.980852,20.5946639 226.977086,24.0503467 C226.97332,29.7068134 221.512523,34.2930359 214.77503,34.2892674 C208.037536,34.2892674 202.576739,29.6992765 202.580505,24.0390413 C202.580505,20.5871269 204.749759,17.6854085 207.868063,15.827555 L207.871829,2.86780223 L167.130517,2.85649683 L163.530157,8.32077178 L162.795774,15.8124812 C165.914077,17.6703346 168.079566,20.5720531 168.079566,24.0277359 C168.0758,29.6879711 162.615003,34.2704251 155.877509,34.2704251 C149.143782,34.2666566 143.679218,29.6766657 143.682985,24.020199 C143.682985,20.5645161 145.852239,17.6627977 148.970542,15.8087127 L148.978075,2.8489599 L108.809205,2.83388604 L103.90202,2.83388604 L104.357714,7.59345794 L104.143048,8.897347 L104.576146,11.8103708 L104.139282,15.1190835 L103.898254,15.7936388 C107.016557,17.6477238 109.185812,20.5532107 109.182046,24.0088936 C109.182046,29.6653603 103.717483,34.2515828 96.9799889,34.2515828 C90.2424952,34.2478143 84.7816982,29.6578233 84.7854642,23.9975882 C84.7854642,20.5456738 86.9547188,17.6439554 90.0730222,15.7861019 L90.0767882,10.0655713 L89.1465697,8.14742237 L90.0767882,5.20425083 L88.4460813,2.82634911 L45.0082656,2.81127525 L45.0007334,15.771028 C48.1190368,17.6288815 50.2845253,20.5305999 50.2845253,23.9900513 C50.2845253,29.6465179 44.8199622,34.2327404 38.0824685,34.228972 C31.3449748,34.228972 25.8841778,29.638981 25.8879439,23.9787459 C25.8879439,20.5268315 28.0609645,17.6251131 31.1755018,15.7672596 L31.183034,2.80750678 L0.0564910036,2.79620139 C0.0564910036,2.79620139 1.16748074,10.7175158 1.16748074,13.92448 C1.16748074,20.4891468 0.0489588698,30.9240277 0.0451928029,40.9293036 C0.0263624683,91.5473319 0,174.751281 0,174.751281 L723.943509,175" id="Fill-3289" fill="#EFF2F3"></path>
                <polyline id="Fill-3290" fill="#A5D9F0" points="397.476 175 396.476 175 396.524 47 397.524 47 397.476 175"></polyline>
                <polyline id="Fill-3291" fill="#A5D9F0" points="371.476 175 370.476 175 370.524 47 371.524 47 371.476 175"></polyline>
                <polyline id="Fill-3292" fill="#A5D9F0" points="345.8585 175 345.1085 175 345.1415 47 345.8915 47 345.8585 175"></polyline>
                <polyline id="Fill-3293" fill="#A5D9F0" points="320.778 175 319.178 175 319.222 47 320.822 47 320.778 175"></polyline>
                <polyline id="Fill-3294" fill="#A5D9F0" points="294.857 175 294.107 175 294.143 47 294.893 47 294.857 175"></polyline>
                <polyline id="Fill-3295" fill="#A5D9F0" points="269.476 175 268.476 175 268.524 47 269.524 47 269.476 175"></polyline>
                <polyline id="Fill-3296" fill="#A5D9F0" points="244.085 175 242.882 175 242.918 47 244.118 47 244.085 175"></polyline>
                <polyline id="Fill-3297" fill="#A5D9F0" points="218.478 175 217.478 175 217.522 47 218.522 47 218.478 175"></polyline>
                <polyline id="Fill-3298" fill="#A5D9F0" points="192.478 175 191.478 175 191.522 47 192.522 47 192.478 175"></polyline>
                <polyline id="Fill-3299" fill="#A5D9F0" points="167.776 175 166.176 175 166.22 47 167.824 47 167.776 175"></polyline>
                <polyline id="Fill-3300" fill="#A5D9F0" points="141.476 175 140.476 175 140.524 47 141.524 47 141.476 175"></polyline>
                <polyline id="Fill-3301" fill="#A5D9F0" points="116.476 175 115.476 175 115.524 47 116.524 47 116.476 175"></polyline>
                <polyline id="Fill-3302" fill="#A5D9F0" points="90.778 175 89.178 175 89.222 47 90.822 47 90.778 175"></polyline>
                <polyline id="Fill-3303" fill="#A5D9F0" points="65.476 175 64.476 175 64.524 47 65.524 47 65.476 175"></polyline>
                <polyline id="Fill-3304" fill="#A5D9F0" points="39.476 175 38.476 175 38.524 47 39.524 47 39.476 175"></polyline>
                <polyline id="Fill-3305" fill="#A5D9F0" points="14.78 175 13.176 175 13.224 47 14.824 47 14.78 175"></polyline>
                <polyline id="Fill-3306" fill="#A5D9F0" points="703.78 175 702.176 175 702.224 47 703.824 47 703.78 175"></polyline>
                <polyline id="Fill-3307" fill="#A5D9F0" points="677.857 175 677.107 175 677.143 47 677.893 47 677.857 175"></polyline>
                <polyline id="Fill-3308" fill="#A5D9F0" points="652.478 175 651.478 175 651.522 47 652.522 47 652.478 175"></polyline>
                <polyline id="Fill-3309" fill="#A5D9F0" points="626.78 175 625.176 175 625.224 47 626.824 47 626.78 175"></polyline>
                <polyline id="Fill-3310" fill="#A5D9F0" points="601.476 175 600.476 175 600.524 47 601.524 47 601.476 175"></polyline>
                <polyline id="Fill-3311" fill="#A5D9F0" points="575.478 175 574.478 175 574.522 47 575.522 47 575.478 175"></polyline>
                <polyline id="Fill-3312" fill="#A5D9F0" points="550.778 175 549.178 175 549.222 47 550.822 47 550.778 175"></polyline>
                <polyline id="Fill-3313" fill="#A5D9F0" points="524.476 175 523.476 175 523.524 47 524.524 47 524.476 175"></polyline>
                <polyline id="Fill-3314" fill="#A5D9F0" points="499.478 175 498.478 175 498.522 47 499.522 47 499.478 175"></polyline>
                <polyline id="Fill-3315" fill="#A5D9F0" points="473.776 175 472.176 175 472.224 47 473.824 47 473.776 175"></polyline>
                <polyline id="Fill-3316" fill="#A5D9F0" points="448.476 175 447.476 175 447.524 47 448.524 47 448.476 175"></polyline>
                <polyline id="Fill-3317" fill="#A5D9F0" points="422.478 175 421.478 175 421.522 47 422.522 47 422.478 175"></polyline>
                <polyline id="Fill-3318" fill="#A5D9F0" points="397.78 175 396.176 175 396.224 47 397.824 47 397.78 175"></polyline>
                <polyline id="Fill-3319" fill="#A5D9F0" points="152 47.526 1.42108547e-14 47.474 1.42108547e-14 46.474 152 46.526 152 47.526"></polyline>
                <polyline id="Fill-3320" fill="#A5D9F0" points="724 69.632 0 69.368 0 68.368 724 68.632 724 69.632"></polyline>
                <polyline id="Fill-3321" fill="#A5D9F0" points="724 90.632 0 90.368 0 89.368 724 89.632 724 90.632"></polyline>
                <polyline id="Fill-3322" fill="#A5D9F0" points="724 112.93 0 112.67 0 111.07 724 111.33 724 112.93"></polyline>
                <polyline id="Fill-3323" fill="#A5D9F0" points="724 133.632 0 133.368 0 132.368 724 132.632 724 133.632"></polyline>
                <polyline id="Fill-3324" fill="#A5D9F0" points="724 154.974 0 154.776 0 154.026 724 154.224 724 154.974"></polyline>
                <polyline id="Fill-3325" fill="#A5D9F0" points="724 47.932 0 47.672 0 46.068 724 46.332 724 47.932"></polyline>
                <path d="M724,184.564471 C722.512272,184.818851 721.088573,183.716538 719.71007,184.475823 C718.335334,184.433427 717.005795,183.974772 715.702621,184.248423 C714.406979,184.121233 713.137702,184.236861 711.883491,183.913104 C710.62928,183.720392 709.393901,184.410301 708.154755,183.643308 C706.91561,183.188507 705.680231,183.500701 704.426019,183.373511 C703.800797,183.539243 703.171808,183.747372 702.535287,183.546952 C701.898765,182.787666 701.254711,183.755081 700.60689,183.230904 C699.307482,183.45445 698.102234,183.254029 696.968547,183.230904 C695.838627,182.94569 694.787802,182.891731 693.797239,183.261738 C692.810442,183.631745 691.880141,183.458304 690.998803,183.130694 C690.117466,183.970918 689.281325,183.412053 688.475316,183.388928 C687.673072,182.722144 686.897194,183.643308 686.140148,183.242467 C685.383101,183.307989 684.64112,183.20007 683.89914,183.223196 C683.341712,183.604765 682.837015,183.743518 682.373748,182.8185 C681.91048,182.660477 681.488644,182.756833 681.096938,183.261738 C680.313527,184.005606 679.65064,183.396636 679.025418,183.462158 L678.10265,183.419762 L677.164816,183.893833 C676.840906,184.741766 676.505696,184.722495 676.147888,184.556762 C675.786314,184.795725 675.405908,184.267694 674.987837,183.874562 C673.872983,183.816748 672.26473,184.144359 670.407895,183.940084 C669.944628,183.400491 669.466295,183.967064 668.972896,183.801331 C668.483264,184.074982 667.982333,184.371759 667.470103,184.144359 C666.957873,183.785915 666.438109,183.893833 665.918346,183.83602 C665.394817,183.762789 664.871287,184.333217 664.343991,184.13665 C663.820461,183.624036 663.293165,183.986335 662.769636,183.473721 C662.249873,183.09986 661.730109,183.78206 661.217879,184.067274 C660.197185,183.751226 659.206621,183.396636 658.280087,183.832165 C656.423252,183.990189 655.681271,184.032586 654.980721,183.419762 C654.28017,182.87246 653.617284,183.385074 651.92617,183.35424 C651.504333,183.52768 651.018468,183.519972 650.449741,183.731955 C649.877249,183.096006 649.229428,183.546952 648.483681,183.296426 C647.734167,183.20007 646.886727,183.358094 645.930061,183.119131 C644.969629,182.895585 643.892439,182.941836 642.687191,183.119131 C641.478177,182.471619 640.382154,182.8185 639.376526,182.860897 C638.370897,182.5911 637.459428,183.018921 636.619521,182.922565 C634.951006,183.32726 633.591335,182.749124 632.416218,182.97267 C631.824894,183.12684 631.282532,183.234758 630.774068,183.446741 C630.261838,183.211633 629.783505,183.361948 629.320238,183.084443 C628.389937,182.61808 627.523665,183.018921 626.59713,183.157673 C625.670596,183.030484 624.680033,183.061317 623.504916,183.180799 C622.917358,183.720392 622.280836,183.176945 621.584052,183.157673 C620.891035,183.446741 620.130222,183.693413 619.294081,183.107568 C617.414647,183.069026 616.356289,182.988087 615.795095,182.903294 C615.230135,182.8185 615.154807,182.733707 615.245201,182.69131 C615.418455,181.959005 616.243297,182.413805 615.06818,182.51787 C614.676475,182.429222 614.062551,182.957253 613.128484,182.5911 C612.194417,182.722144 610.940206,182.29047 609.271691,182.756833 C608.156836,182.733707 607.222769,182.413805 606.435591,182.687456 C605.648414,182.510161 605.008126,183.003504 604.492129,183.018921 C603.456369,182.259636 602.898942,182.5911 602.586331,183.334968 C601.968641,183.774352 602.341515,183.419762 601.84435,183.651016 C601.599534,183.042046 601.1325,184.132796 600.221031,183.670287 C599.765297,184.510512 599.196571,183.778206 598.484721,183.812894 C597.776638,183.785915 596.925432,183.558514 595.904737,183.342677 C594.884043,183.069026 593.938676,183.631745 593.064872,183.122985 C592.1873,183.069026 591.381291,182.355992 590.628011,182.949544 C589.878497,183.026629 589.18548,183.446741 588.545192,183.169236 C587.897371,182.806938 587.30228,183.350385 586.748619,182.803083 C585.633764,183.119131 584.673332,182.425368 583.791995,182.560266 C582.910657,182.610371 582.104648,182.722144 581.302404,182.567975 C579.694152,182.587246 578.082132,181.870357 575.85619,182.494744 C572.515393,182.282761 573.630248,182.278907 574.183909,182.456202 C574.462622,182.375263 574.601979,182.772249 573.976757,182.502453 C573.351534,182.271198 571.957966,183.446741 569.174597,182.448493 C567.084245,182.406097 565.856398,182.487036 565.155848,182.321303 C564.451531,182.159425 564.270744,182.298178 564.278277,182.483181 C564.289576,182.953399 565.046622,182.448493 563.848907,182.510161 C563.449669,182.028381 562.828213,182.425368 561.894145,182.487036 C560.956312,182.332866 559.705867,182.33672 558.033585,182.444639 C556.36507,182.830063 555.092027,182.571829 554.127829,182.394534 C553.156098,182.606517 552.489445,181.924317 552.029944,182.352137 C551.107176,181.98213 551.001717,182.228802 550.933922,182.313595 C550.866126,182.340575 550.828462,182.668185 550.048818,182.20953 C549.26164,182.321303 547.732482,183.196216 544.666632,182.294324 C543.645938,182.5911 542.666674,182.741416 541.721307,182.733707 C540.775941,182.729853 539.864472,182.567975 538.990667,182.244219 C537.243058,181.816398 535.634805,182.020673 534.147077,182.621934 C532.663115,182.487036 531.299679,183.48143 530.049234,182.849334 C528.795023,183.192362 527.650037,182.97267 526.599211,183.203924 C525.548386,183.469867 524.587954,183.492992 523.706616,183.469867 C522.821512,183.878416 522.019269,183.446741 521.277288,183.388928 C520.162434,183.12684 519.051346,183.034338 517.955323,183.080589 C516.855535,183.092151 515.778344,182.217239 514.735051,182.587246 C514.211522,182.806938 513.699291,182.71829 513.194594,182.664331 C512.693663,182.494744 512.200264,182.005256 511.721931,182.213385 C511.243599,182.371409 510.780331,182.078486 510.328363,181.901191 C509.876395,182.082341 509.443259,181.978276 509.025189,182.278907 C508.189048,181.85494 508.67868,183.211633 509.601448,182.548704 C510.52045,182.74527 511.88012,182.375263 512.784056,182.668185 C513.687992,182.953399 514.143727,182.837772 513.254856,182.564121 C512.810421,182.16328 512.030776,182.005256 510.806696,182.510161 C510.192773,182.498598 509.469624,182.521724 508.622184,182.664331 C507.770978,182.776104 506.799247,182.930273 505.684392,182.71829 C504.200431,182.887877 503.047912,182.521724 502.162808,182.46391 C501.281471,182.529432 500.667548,182.5911 500.264543,182.710582 C499.454767,182.806938 499.473599,182.386826 499.82764,182.783812 C500.177916,183.566223 500.855868,182.61808 501.368098,182.822355 C501.876562,182.602663 502.219304,183.12684 501.887861,182.849334 C501.556418,183.142256 500.558322,182.8185 498.388876,182.822355 C497.300386,182.884022 495.921884,182.51787 494.18934,183.061317 C493.323068,182.961107 492.370168,183.196216 491.315576,183.011212 C490.264751,183.038192 489.115999,182.510161 487.861788,182.714436 C485.982354,182.421514 484.20838,182.741416 482.528565,182.656622 C481.131231,182.918711 479.801692,182.648914 478.536181,182.648914 C477.270671,182.895585 476.069189,182.583392 474.92797,182.552558 C473.786751,182.413805 472.709561,181.797127 471.6851,182.379117 C470.660639,182.039944 469.692674,182.240364 468.777439,182.448493 C466.950735,182.059215 465.331183,182.579537 463.896185,182.344429 C463.033679,182.078486 462.238969,182.375263 461.500754,182.1363 C460.76254,181.770147 460.084588,182.398388 459.459366,182.240364 C458.205154,182.217239 457.161862,181.716188 456.276758,182.240364 C455.387887,182.737561 454.657206,182.159425 454.028217,182.113174 C452.777772,182.402242 451.941631,182.3637 451.10549,182.170988 C449.436975,182.205676 449.436975,182.359846 449.154495,182.298178 C449.018905,182.170988 448.807986,182.244219 448.284457,182.652768 C447.764694,182.683602 446.928553,182.84548 445.534985,182.579537 C444.145183,182.69131 443.376838,182.783812 442.943702,182.787666 C442.506799,182.433076 442.40134,183.122985 442.333545,183.134548 C442.194188,183.207779 442.194188,182.926419 439.964479,183.022775 C439.226265,182.687456 438.544547,182.760687 437.892959,182.729853 C437.245139,182.440785 436.623683,182.918711 436.005993,182.656622 C435.388303,182.386826 434.770614,182.355992 434.119027,182.575683 C433.471206,182.144008 432.789487,182.668185 432.047507,182.221093 C431.305526,181.989839 430.499516,181.720042 429.603113,182.047652 C428.70671,181.885774 427.716147,182.23651 426.601292,182.097758 C423.260495,182.217239 422.981782,182.502453 422.842425,182.487036 C422.703068,182.548704 422.703068,182.74527 419.919699,182.540995 C417.132563,183.22705 419.919699,182.359846 421.3095,182.652768 C422.006284,182.641205 422.352793,182.937982 421.482755,182.722144 C420.612716,182.621934 418.526131,182.679748 414.349193,182.540995 C411.562057,182.120883 409.490537,182.668185 407.927481,182.348283 C406.368192,182.514015 405.3136,182.317449 404.571619,182.298178 C403.083891,182.093903 402.839075,182.1363 402.221385,182.190259 C401.599929,181.800981 400.613132,182.544849 397.641443,182.240364 C395.411734,181.978276 394.089728,182.382971 393.272419,182.259636 C392.45511,182.255781 392.142499,182.228802 391.935347,182.255781 C391.51351,183.238612 391.51351,182.117029 388.730141,182.382971 C385.946771,181.824107 387.061625,181.774001 387.619053,182.587246 C388.172713,182.930273 388.172713,182.822355 383.159635,182.679748 C381.49112,182.69131 380.282105,182.937982 379.378169,182.837772 C378.466701,183.223196 377.86031,182.514015 377.385744,183.103714 C376.436611,183.473721 376.022307,183.585494 374.828358,183.55466 C374.229501,183.816748 373.43479,183.523826 372.278506,183.469867 C371.125987,183.573931 369.608128,183.523826 367.566739,183.219341 C366.037581,183.666433 364.817267,182.621934 363.845536,182.8185 C362.866272,183.169236 362.13559,182.741416 361.578163,182.687456 C360.467075,182.456202 360.049005,183.09986 359.770291,182.460056 C359.212864,182.020673 359.212864,182.494744 355.31464,182.224947 C354.342909,182.028381 353.71392,181.492642 353.333514,181.685354 C352.956874,181.612123 352.82505,180.964611 352.843882,181.65452 C352.877779,181.242116 353.503002,181.673791 353.924838,181.912754 C354.342909,181.361598 354.550061,182.020673 353.747818,181.793273 C353.348579,181.249825 352.696992,181.793273 351.691363,181.642957 C350.685735,182.093903 349.329831,181.935879 347.518192,181.928171 C345.71032,181.720042 344.124666,182.182551 342.738631,181.920463 C341.352595,181.851086 340.166179,181.851086 339.145485,181.974422 C338.128557,181.708479 337.281117,181.423266 336.573034,182.275053 C335.864951,182.429222 335.299991,182.047652 334.848023,182.051507 C333.036384,181.766293 333.036384,181.905046 333.036384,182.070778 C333.036384,182.028381 334.708666,183.003504 334.569309,182.294324 C334.501514,182.475473 333.977984,182.359846 332.569351,182.456202 C331.156951,182.899439 328.859447,182.382971 325.239936,182.510161 C323.228679,182.448493 321.582762,182.178697 320.211792,182.560266 C318.837056,181.985985 317.737268,182.117029 316.818266,182.483181 C314.976496,182.460056 313.857876,182.3637 312.720423,182.444639 C311.58297,181.797127 310.422919,182.097758 308.509588,182.452348 C307.933328,182.282761 307.289274,182.857043 306.558592,182.706727 C305.824144,183.084443 305.006836,182.799229 304.076535,182.502453 C298.509796,182.409951 301.014452,182.729853 302.268663,182.687456 C302.893885,182.344429 303.206497,182.456202 302.042679,182.841626 C301.458887,183.385074 300.505988,182.887877 299.037092,182.779958 C298.302644,182.575683 297.440138,183.076734 296.430743,182.625788 C295.421348,182.687456 294.261297,182.521724 292.93929,182.64506 C291.176615,182.687456 289.557063,182.760687 288.076868,182.795375 C286.592906,182.833917 285.240769,182.833917 284.009156,182.725999 C281.542164,182.255781 279.553505,182.968816 277.922654,182.710582 C276.291802,182.560266 275.026292,182.614226 274.005598,182.737561 C272.981137,182.964961 272.209025,182.830063 271.568737,182.988087 C270.291927,182.937982 269.549946,182.656622 268.435092,183.122985 C267.598951,182.737561 266.555658,182.964961 265.459636,183.049755 C264.363614,183.084443 263.214862,182.984233 262.167802,183.103714 C260.081217,183.122985 258.408935,182.783812 258.408935,183.119131 C258.408935,182.864751 257.783713,183.585494 256.845879,183.319552 C255.904279,183.35424 254.650068,183.350385 253.395857,183.58164 C252.145412,183.743518 250.891201,184.321654 249.953367,184.028732 C249.011767,183.940084 248.386545,184.456552 248.386545,184.221444 C248.386545,183.805186 249.501399,183.793623 250.367671,183.770498 C250.797041,183.12684 251.169915,183.812894 251.309271,183.58164 C251.328103,183.65487 251.478759,183.284863 250.86107,183.207779 C250.367671,183.17309 249.467502,183.435179 247.998606,183.030484 C247.264158,183.119131 246.386587,182.961107 245.343294,182.94569 C244.300001,183.261738 243.094753,182.876314 241.701185,183.115277 C240.311383,183.620182 239.102369,183.546952 238.05531,183.573931 C237.008251,183.600911 236.115614,183.508409 235.358568,183.334968 C233.844475,183.385074 232.853912,183.315697 232.172193,183.593203 C230.812523,184.248423 230.688232,183.674142 230.066776,183.65487 C229.757931,183.974772 229.328561,183.913104 228.552683,183.758935 C227.780571,184.310091 226.665716,184.41801 224.993435,184.537491 C223.32492,184.383322 221.837192,184.337071 220.507652,184.410301 C219.178113,184.506657 218.002996,184.152067 216.952171,184.240715 C214.846753,184.279257 213.238501,184.483532 211.875064,185 C210.515393,184.818851 209.400539,185.050105 208.285685,184.868956 C206.617169,184.16363 208.285685,184.791871 209.121825,184.425718 C209.539896,184.749474 209.747048,184.36405 209.227285,184.325508 C208.703755,184.240715 207.45331,184.495095 204.944888,184.680098 C202.440232,184.707078 201.396939,183.805186 201.031598,184.19061 C200.662491,184.267694 200.978869,184.510512 201.186021,184.5452 C201.396939,184.41801 201.502398,184.021023 200.718987,184.514366 C199.935576,185.015417 198.263294,185.115627 194.918731,184.525929 C193.250216,184.757183 191.962107,184.622285 190.967778,184.560617 C189.969682,185.12719 189.265365,184.595305 188.760667,184.310091 C187.751272,184.321654 187.540354,184.710932 187.400997,184.487386 C187.26164,184.552908 187.193845,184.441135 186.463163,184.383322 C186.097822,184.579888 185.56676,184.306237 184.779582,184.03644 C183.992405,183.593203 182.949112,184.67239 181.555544,184.225298 C179.698709,183.751226 178.090456,184.209881 176.681822,184.005606 C175.273189,183.003504 174.067941,183.874562 173.013349,183.905396 C170.911698,184.275403 169.427736,183.361948 168.188591,183.928521 C166.953211,183.801331 165.958882,183.986335 164.847794,183.974772 C164.011653,183.704975 164.429723,184.41801 165.265864,183.928521 C166.102005,183.55466 167.35245,183.631745 168.188591,183.546952 C169.024731,183.785915 169.442802,183.030484 168.606661,183.589348 C167.77052,183.997898 165.683935,184.044149 161.506997,183.924667 C158.723627,183.616328 156.61821,183.404345 155.009957,183.593203 C153.401704,184.479678 152.28685,183.003504 151.48084,183.862999 C149.872587,184.225298 149.499714,184.283111 148.882024,184.225298 C148.573179,183.96321 148.200306,184.198318 147.582616,184.179047 C146.964927,184.394884 146.094888,184.132796 144.799247,184.067274 C143.823749,184.74562 142.968776,183.778206 142.223029,183.546952 C141.853922,183.288718 141.503647,183.234758 141.183503,183.296426 L140.290866,183.785915 C140.015919,183.627891 139.76357,183.924667 139.53382,183.570077 L138.904831,184.094254 C138.524424,184.340925 138.219346,183.712684 137.97453,183.677996 C137.488664,183.766643 137.243848,183.535389 137.123324,183.254029 C137.002799,183.624036 137.002799,182.949544 137.002799,183.624036 C137.002799,183.500701 136.814479,183.342677 136.452904,183.219341 C136.095096,183.219341 135.556501,182.024527 134.855951,183.593203 C134.1554,183.176945 133.289128,183.982481 132.268434,183.48143 C131.756204,182.695165 131.206309,183.254029 130.622517,183.215487 C130.034959,184.279257 129.409736,183.223196 128.750616,183.597057 C128.091496,183.685704 127.394712,184.564471 126.664031,183.970918 C125.933349,184.337071 125.165004,183.12684 124.366527,183.720392 C123.967289,181.985985 123.560517,183.003504 123.142447,183.188507 C122.728143,183.758935 122.30254,182.71829 121.869404,183.415907 C121.003132,184.206027 120.106729,184.387176 119.180194,183.762789 C118.25366,184.236861 117.440117,184.159776 116.724501,183.959355 C116.008885,183.724247 115.387429,184.175193 114.845068,183.978626 C113.481631,183.970918 112.600293,183.442887 111.877145,184.213735 C112.453404,183.296426 109.300927,184.525929 109.888485,184.656973 C109.180402,184.437281 108.325429,183.620182 107.007189,183.843728 C106.348069,184.26384 105.575957,183.651016 104.645657,184.171338 C104.182389,184.934478 103.677692,183.076734 103.131564,183.924667 C102.585436,184.421864 101.994111,184.186755 101.35759,184.348633 C100.59301,183.778206 99.9263575,183.68185 99.3463319,183.978626 C98.7700727,183.489138 98.2804407,184.306237 97.8623703,183.755081 C97.0299959,183.967064 96.4951671,183.242467 96.1561912,183.778206 C95.4744728,184.41801 95.579932,184.529783 95.6514936,183.388928 C95.7192888,182.737561 95.7531864,183.828311 94.9358776,183.234758 C94.5291064,182.440785 93.903884,183.631745 92.9698168,183.523826 C92.0319832,183.011212 90.777772,183.743518 89.1054904,183.311843 C88.2693496,184.03644 87.425676,182.598809 86.578236,183.018921 C85.730796,183.477575 84.8795896,183.142256 84.0246169,183.377365 C83.1734105,183.577786 82.3184377,183.58164 81.4709977,183.531535 C80.6235577,183.48143 79.7798841,183.377365 78.9437433,183.361948 C77.2714617,182.911002 75.6368441,183.947793 74.0700217,183.35424 C73.0907578,182.837772 72.1378586,183.211633 71.2226234,183.269446 C70.3073882,183.724247 69.4260506,183.751226 68.5899098,183.32726 C67.3356986,183.639453 66.1794138,183.755081 65.154953,183.350385 C64.6427226,183.334968 64.1606234,182.722144 63.7124218,182.937982 C63.2679866,182.803083 62.857449,182.953399 62.4883418,183.273301 C61.0043803,182.687456 60.1456411,182.672039 60.1456411,183.246321 C58.6616795,182.806938 57.2605787,183.616328 55.9423387,183.20007 C54.6240987,183.535389 53.3849531,183.901542 52.2249019,183.558514 C51.0648507,183.728101 49.983894,183.801331 48.9707324,183.824457 C47.9613372,184.074982 47.02727,183.878416 46.160998,183.974772 C44.428454,184.152067 42.9746236,183.820603 41.7693756,184.005606 C40.5603612,185.011563 39.6036956,183.546952 38.8579485,184.329362 C37.3739869,184.159776 36.7562973,184.599159 36.7562973,184.533637 C36.7562973,184.217589 36.4060221,184.761037 35.7807997,184.818851 C35.1555773,184.764891 34.2478749,183.978626 33.1367869,184.19061 C32.5793597,183.88227 31.9692029,184.398739 31.3176157,184.182901 C30.6660285,184.233006 29.9692445,184.375613 29.2385629,184.055711 C28.5041149,183.677996 27.7395358,183.103714 26.9485918,183.774352 C26.1576478,183.893833 25.340339,184.090399 24.5041982,184.024877 C23.6680574,184.741766 22.9373758,184.236861 22.2970878,184.259986 C21.6567998,184.236861 21.1069054,183.970918 20.6398718,183.928521 C20.1690718,184.626139 19.7773662,185.069376 19.4534558,184.236861 L18.654979,184.024877 C17.6455838,183.022775 17.8188382,184.383322 17.8188382,184.024877 C17.8188382,183.651016 17.3254398,183.412053 16.5005983,184.040294 C15.9620031,184.094254 15.2614527,184.001752 13.1974655,184.198318 C12.5383455,184.021023 11.8377951,183.959355 11.1184127,183.997898 C10.3952639,184.03644 9.65328311,184.175193 8.90753592,184.398739 C7.42357433,184.375613 5.93961275,183.785915 4.61760636,184.522074 C1.97735998,184.622285 0,184.699369 0,184.699369 L0,174 L724,174.25438 C724,174.25438 724,176.227751 724,178.447793 L724,179.407498 C724,179.738963 724,179.792922 724,180.455851 C724,181.496496 724,181.257533 724,181.303784 L724,182.186405 C724,182.506307 724,182.494744 724,182.953399 C724,182.980378 724,183.011212 724,183.52768 L724,184.564471" id="Fill-3326" fill="#FFFFFF"></path>
                <path d="M0.105455359,172.801323 C3.66833998,172.945478 8.98253682,172.851777 12.1160675,173.363528 C13.3664667,173.547326 14.6055672,172.902232 15.8446677,173.619404 C17.0800019,174.044662 18.3191023,173.749144 19.5695016,173.868072 C20.1984675,173.716709 20.8274334,173.518495 21.4639318,173.709501 C22.1004302,174.415862 22.7406949,173.514892 23.3922584,174.005019 C24.691619,173.795994 25.8968231,173.979792 27.026702,174.005019 C28.1565808,174.268103 29.2073681,174.322161 30.1978953,173.976188 C31.1884224,173.630216 32.114923,173.79239 33,174.095117 C33.8813003,173.313074 34.7136444,173.835637 35.5196246,173.853656 C36.3256049,174.480732 37.0976887,173.6158 37.8547076,173.994208 C38.5928951,173.936546 39.3122513,174.023039 40.0353737,174.012227 C41.0484984,173.990604 41.3836958,173.565346 41.7829197,174.397843 C44.0125473,174.073493 57.6162886,173.432002 58.3620086,173.662651 C59.1114949,173.756352 68.1957208,173.277035 69.201313,173.237393 C70.2069052,173.493268 71.1183408,173.089633 71.9544511,173.183334 C73.6266718,172.804927 74.9862927,173.341905 76.1651329,173.136484 C76.7489037,172.988725 77.2912455,172.887816 77.8034573,172.693206 C78.3119027,172.909439 78.7939844,172.772492 79.2572347,173.028367 C80.1875016,173.468041 91.3544709,172.145416 92.2847378,172.01928 C93.2112384,172.134605 94.2017656,172.109378 95.3768396,171.997657 C95.9643766,171.493114 104.242622,171.691327 104.935615,171.705743 C105.632373,171.439055 106.393158,171.204803 107.225502,171.752593 C109.104868,171.788632 110.163187,171.864314 110.728127,171.943599 C111.293066,172.022884 111.368391,172.10217 111.278001,172.145416 C111.104753,172.822946 110.279942,172.404896 111.455016,172.307591 C111.846707,172.386876 112.460608,171.896749 113.394641,172.239117 C114.324908,172.116585 119.571312,171.853502 121.243533,171.413828 C122.35458,171.435452 123.29238,171.734574 124.079528,171.478698 C124.866677,171.644477 126.346819,172.185059 126.866563,172.16704 C127.902285,172.880608 128.459692,172.570674 128.768526,171.875125 C129.386193,171.460679 129.017099,171.792236 129.510479,171.579607 C129.759053,172.14902 130.222303,171.125518 131.133739,171.557984 C131.593223,170.775941 132.161928,171.460679 132.869986,171.428244 C133.578043,171.453471 134.429219,171.6661 135.449876,171.867917 C136.470533,172.123793 137.415865,171.594022 138.293404,172.069735 C139.167177,172.123793 139.976924,172.786907 140.72641,172.23191 C141.475896,172.159832 142.168889,171.770613 142.81292,172.030092 C143.449418,172.365253 144.040721,171.867917 144.594362,172.354442 C145.038781,172.750869 148.545172,171.161557 149.89726,171.16516 C151.531818,171.172368 153.170142,171.179576 154.808467,171.186784 C157.85914,171.201199 171.044826,171.572399 172.96562,172.296779 C173.884588,172.642752 173.990043,172.4085 174.061602,172.332818 C174.129395,172.307591 174.167058,172.001261 174.95044,172.430123 C175.730057,172.322007 177.262926,171.507529 180.324897,172.350838 C181.345555,172.073339 182.328549,171.932787 183.273881,171.936391 C184.222979,171.943599 185.130649,172.091358 186.004422,172.394084 C187.751968,172.794115 189.360162,172.606713 190.844069,172.040904 C192.327977,172.170644 193.691364,171.237238 194.953062,171.828275 C197.777759,171.111102 209.705514,171.338147 211.795789,172.004865 C212.300469,172.163436 212.793849,172.621129 213.268398,172.426519 C213.746714,172.27876 214.21373,172.549051 214.665682,172.71483 C215.113867,172.549051 215.546987,172.646356 215.968809,172.365253 C216.801153,172.76168 216.315305,171.493114 215.39257,172.109378 C214.469836,171.929183 213.113981,172.275156 212.210078,172.001261 C211.306175,171.73097 210.850458,171.84269 211.739296,172.098566 C212.179948,172.47337 212.959565,172.621129 214.187366,172.14902 C214.797501,172.156228 215.52439,172.138209 216.371799,172.001261 C217.219208,171.900352 218.19467,171.756197 219.309484,171.950807 C220.797158,171.792236 221.945868,172.138209 222.83094,172.192267 C223.712245,172.131001 224.326146,172.073339 224.729136,171.961618 C225.538883,171.867917 225.516285,172.264344 225.166022,171.893145 C224.81576,171.161557 224.134066,172.044508 223.625621,171.857106 C223.113409,172.062527 222.774446,171.568795 223.10211,171.831879 C223.433542,171.55438 224.431601,171.857106 226.597202,171.853502 C231.353992,171.849898 239.044701,170.884058 241.737579,171.723762 C242.762002,172.044508 243.729932,171.853502 244.645134,171.662496 C246.471771,172.022884 248.091264,171.53636 249.522444,171.756197 C250.384918,172.004865 251.183366,171.727366 251.921554,171.950807 C252.655975,172.293176 253.337668,171.705743 253.962868,171.853502 C255.217033,171.875125 256.260288,172.347234 257.149126,171.853502 C258.034198,171.388601 258.768619,171.929183 259.390053,171.976034 C260.644218,171.702139 272.048462,171.179576 272.884572,171.363374 C274.553027,171.330939 274.553027,171.18318 274.835497,171.244446 C274.971082,171.363374 275.611347,172.430123 276.134857,172.051715 C276.658368,172.022884 277.490712,171.871521 278.884229,172.120189 C280.27398,172.015677 281.042298,171.92558 281.475418,171.921976 C281.912304,172.257137 282.013993,171.612042 282.085552,171.60123 C282.224904,171.532756 282.224904,171.79584 284.454532,171.705743 C285.196486,172.01928 285.874413,171.947203 286.525976,171.979638 C287.173773,172.249929 287.795207,171.803048 288.412874,172.048112 C289.030541,172.296779 289.651974,172.329214 290.299772,172.127397 C290.947569,172.527428 293.429536,172.026488 294.167724,172.444539 C294.913444,172.664375 295.719424,172.913043 296.612028,172.610317 C297.512165,172.758076 298.502692,172.430123 299.61374,172.563467 C302.954415,172.448142 303.236884,172.185059 303.37247,172.195871 C303.511822,172.138209 303.511822,171.958014 306.298856,172.145416 C309.082124,171.507529 306.298856,172.314799 304.905339,172.040904 C304.20858,172.051715 303.862084,171.77782 304.732091,171.979638 C305.602097,172.069735 307.688607,172.01928 311.869159,172.145416 C314.652427,172.541843 316.723872,172.026488 318.286871,172.329214 C319.84987,172.174247 320.900657,172.354442 321.642611,172.372461 C323.126518,172.567071 323.375092,172.523824 324.022889,172.491389 C324.380684,172.682395 338.078582,172.448142 339.758335,172.63194 C340.624575,172.725641 341.584972,172.822946 342.458745,172.736453 C343.336285,172.653564 351.399853,172.722037 352.842332,173.770767 C355.19248,173.331094 373.888209,173.421191 373.229113,173.644631 C374.204575,173.316678 374.93523,173.716709 375.492637,173.763559 C376.60745,173.983396 377.025506,171.561587 377.304209,172.159832 C377.861616,172.574278 373.146255,171.896749 377.044337,172.145416 C378.019799,172.329214 378.644999,172.830154 379.025391,172.64996 C379.402017,172.722037 379.533837,173.32749 379.515005,172.678791 C379.481109,173.060802 378.867208,172.671583 378.449153,172.444539 C379.021625,172.750869 391.246914,172.419311 394.88889,172.545447 C395.480193,172.145416 397.935797,172.105774 398.689049,172.487785 C399.201261,172.264344 398.862297,171.929183 397.999823,171.810255 C405.121826,171.900352 403.867661,171.157953 410.99343,171.24805 C413.859556,171.284089 418.842322,171.219219 421.346886,171.067856 C427.779663,170.685844 417.746339,172.905835 421.71598,170.87685 C421.09078,171.197595 420.778181,171.093083 421.941956,170.736298 C422.525727,170.224547 422.853391,171.363374 424.326,171.464283 C425.056655,171.655288 425.919129,171.190388 426.932254,171.608438 C427.941613,171.55438 429.097855,171.709347 430.42358,171.590419 C432.186191,171.550776 433.801917,171.482302 435.285825,171.449867 C436.769733,171.417432 438.121821,171.417432 439.353389,171.518341 C441.816525,171.958014 443.808878,171.287692 445.458501,171.532756 C454.953249,172.34363 436.679342,171.550776 445.707074,171.356166 C445.970713,171.348958 451.028804,171.190388 452.358294,171.233634 C455.555851,171.338147 458.02652,170.235359 461.269272,170.94172 C462.78331,170.891265 463.773837,170.959739 464.455531,170.696656 C461.589405,171.986846 470.165185,170.754318 466.557105,170.638994 C466.865939,170.339871 467.924259,170.487631 468.696342,170.631786 C469.472193,170.112827 470.58324,171.799444 472.255461,171.687723 C473.923915,171.831879 475.411589,171.871521 476.74108,171.803048 C478.070571,171.716554 479.524348,173.273431 480.578902,173.190542 C482.680476,173.158107 484.288671,172.963498 485.652058,172.480577 C487.015445,172.653564 488.126492,172.437331 489.241306,172.603109 C490.909761,173.26262 489.241306,172.675187 488.405196,173.017556 C487.987141,172.71483 487.779996,173.075218 488.29974,173.114861 C488.823251,173.190542 490.077416,172.952686 492.581981,172.783303 C495.086546,172.754472 496.129801,173.597781 496.498895,173.237393 C496.860456,173.165315 496.547856,172.93827 496.340712,172.902232 C496.129801,173.028367 496.028112,173.399567 496.811494,172.93827 C497.594877,172.466162 499.263331,172.372461 502.604007,172.923855 C504.276227,172.711226 505.564289,172.833758 506.558583,172.89142 C507.556642,172.361649 508.260933,172.858985 508.765613,173.125672 C509.774971,173.114861 509.985882,172.750869 510.125233,172.959894 C510.260819,172.898628 510.332378,173.006744 511.063033,173.057199 C511.42836,172.877004 511.959403,172.109378 512.746552,172.365253 C513.537468,172.776096 514.580722,171.770613 515.97424,172.185059 C517.827241,172.63194 519.435435,172.199475 520.844017,172.39048 C522.2526,173.331094 523.457804,171.752593 524.512357,171.720158 C526.613932,171.377789 528.09784,172.23191 529.33694,171.702139 C530.572274,171.821067 531.566568,171.648081 532.681381,171.658892 C533.513726,171.911164 533.09567,171.244446 532.25956,171.702139 C531.427216,172.051715 530.17305,171.979638 529.33694,172.055319 C528.50083,171.835483 528.082775,172.53824 528.918885,172.015677 C529.754995,171.633665 531.841505,171.594022 536.01829,171.702139 C538.805325,171.990449 540.910666,172.188663 542.515094,172.012073 C544.127054,171.186784 545.241868,172.567071 546.044082,171.763405 C547.652276,171.42464 548.025136,171.370582 548.642803,171.421036 C548.951637,171.669704 549.324497,171.449867 549.942164,171.464283 C550.563597,171.266069 551.429838,171.511133 552.725432,171.568795 C553.700894,170.938116 554.555836,171.839086 555.301556,172.058923 C555.674416,172.296779 556.020912,172.350838 556.341044,172.293176 L557.233649,171.835483 C557.508586,171.983242 557.760926,171.702139 557.990668,172.0373 L558.619633,171.543568 C559.000026,171.316523 559.305093,171.903956 559.5499,171.932787 C560.035748,171.849898 560.280555,172.066131 560.401076,172.329214 C560.525362,171.986846 560.525362,172.613921 560.525362,171.986846 C560.525362,172.098566 560.709909,172.246325 561.071471,172.365253 C561.429266,172.365253 561.967841,173.482457 562.668366,172.012073 C563.368891,172.404896 567.820614,172.801323 568.841271,173.273431 C569.349716,174.008623 569.899591,173.482457 570.487128,173.518495 C571.074665,172.527428 571.696098,173.511288 572.35896,173.161711 C573.018056,173.082426 573.714815,172.257137 574.44547,172.812135 C575.176125,172.469766 575.940676,173.601385 576.74289,173.046387 C577.142114,174.668134 577.54887,173.720313 577.963159,173.543723 C578.381214,173.013952 578.806802,173.983396 579.239922,173.331094 C580.102397,172.592298 581.002533,172.422915 581.929034,173.006744 C583.684113,172.174247 616.4393,172.45535 617.896844,170.974155 C618.066326,171.640873 622.212981,171.839086 623.211041,171.23003 L623.877669,171.741782 C626.984836,171.251654 627.922636,169.734419 629.391478,170.624578 C629.794468,170.4588 630.201225,170.289417 630.607981,170.123639 C632.984493,170.361495 637.906998,170.678636 639.952079,170.231755 C640.807021,170.047957 641.658196,170.044353 642.505605,170.091204 C643.353014,170.13445 644.196657,170.231755 645.032768,170.249774 C646.704988,170.671429 648.343313,169.701984 649.906312,170.256982 C650.88554,170.739902 651.838404,170.386722 652.753606,170.332664 C653.668808,169.91101 654.550114,169.885782 655.386224,170.282209 C656.64039,169.986691 657.796632,169.882178 658.821056,170.256982 C659.333267,170.275002 659.815349,170.844415 660.263534,170.642598 C660.707953,170.768733 661.118476,170.628182 661.48757,170.32906 C662.971477,170.87685 663.830185,170.891265 663.830185,170.357891 C665.314093,170.76513 666.715143,170.008314 668.033335,170.401137 C669.351527,170.083996 670.590627,171.017401 671.750636,171.338147 C672.910645,171.175972 673.991562,171.111102 675.000921,171.085875 C676.010279,170.851623 676.948079,171.035421 677.814319,170.945324 C679.5468,170.783149 681.686037,171.435452 682.891241,171.262465 C684.096445,170.321852 688.710117,171.096687 690.114933,170.920096 C693.591194,170.473215 696.653166,171.428244 697.026026,171.132726 C697.816941,171.021005 698.637986,170.840811 699.47033,170.902077 C700.306441,170.231755 701.037096,170.70026 701.741387,170.68224 C702.999319,170.757922 705.217647,170.945324 706.400254,170.61737 C707.469872,170.894869 712.079778,171.049836 712.151337,171.017401 L715.88747,171.042628 C721.341018,170.808376 722.809861,170.711071 724,171.013797 C724,171.013797 723.973636,172.599506 723.973636,173.273431 C723.973636,175.183489 723.973636,177.093546 723.973636,179 L0,178.765748 C0,178.765748 0,176.92056 0,174.844724 L0,173.943754 C0,173.63382 0,173.583365 0,172.963498 C0,172.177851 0,175.806961 0,175.814168 C0,174.808685 0.0225975769,173.803202 0.105455359,172.801323" id="Fill-3327" fill="#FFFFFF"></path>
            </g>
        </g>
    </g>
</svg>