<?xml version="1.0" encoding="UTF-8"?>
<svg width="220px" height="549px" viewBox="0 0 220 549" version="1.1" xmlns="http://www.w3.org/2000/svg" xmlns:xlink="http://www.w3.org/1999/xlink">
    <!-- Generator: Sketch 55.2 (78181) - https://sketchapp.com -->
    <title>Group 3</title>
    <desc>Created with Sketch.</desc>
    <defs>
        <path d="M1,266 L1,2 C1,2.49550562 1,2.99101124 1,3.47977528 C1,7.54157303 1,11.1550562 1,11.1550562 C1,11.7820225 1,12.4089888 1,13.0359551 C1,14.3573034 1,18.2808989 1,18.2808989 C1.192561,18.5404494 1.40876983,18.6483146 1.76348746,18.6483146 C2.20941819,18.6483146 2.87493602,18.4764045 4.00327589,18.2202247 L5.38836376,18.2674157 C5.39174202,18.2606742 5.40525508,18.2606742 5.43228118,18.2606742 C5.70254223,18.2606742 7.15857362,18.5505618 7.52004777,19.0460674 C7.70923051,18.7662921 7.97273503,18.6752809 8.24637434,18.6752809 C8.60447023,18.6752809 8.97945743,18.8303371 9.24296195,18.911236 C9.24971848,18.911236 9.25309674,18.911236 9.25985327,18.911236 C9.33079679,18.911236 9.40511858,18.9820225 9.48281863,19.052809 C9.55714042,19.1235955 9.63484047,19.1977528 9.71591879,19.1977528 C9.83415799,19.1977528 9.95577546,19.0393258 10.0875277,18.4865169 C10.1280669,18.5033708 10.1719843,18.5101124 10.2125235,18.5101124 C10.4794062,18.5101124 10.7395325,18.2202247 10.9929022,18.0280899 C11.0131718,17.947191 11.0503327,17.9134831 11.1043849,17.9134831 C11.2361372,17.9134831 11.4658591,18.105618 11.7631462,18.2977528 C12.0604334,18.4898876 12.4219075,18.6820225 12.8205426,18.6820225 C13.0536427,18.6820225 13.3002559,18.6179775 13.5536257,18.4460674 C13.6110561,18.405618 13.6853779,18.388764 13.7698345,18.388764 C13.955639,18.388764 14.1954956,18.4662921 14.4556219,18.5438202 C14.7157482,18.6213483 14.9927657,18.6988764 15.252892,18.6988764 C15.6751749,18.6988764 16.0535404,18.4966292 16.22921,17.7685393 C16.2832622,17.7280899 16.3406927,17.7078652 16.4015015,17.7078652 C16.6041972,17.7078652 16.8440539,17.8898876 17.1008019,18.0719101 C17.3575499,18.2539326 17.6311892,18.4359551 17.8879372,18.4359551 C17.962259,18.4359551 18.0365808,18.4191011 18.1109026,18.3820225 C18.1852244,18.341573 18.2629244,18.3280899 18.3406245,18.3280899 C18.3946767,18.3280899 18.4487289,18.3348315 18.5061594,18.3382022 C18.5602116,18.3449438 18.6142638,18.3516854 18.6716943,18.3516854 C18.8270944,18.3516854 18.9858727,18.3078652 19.1514076,18.105618 C19.5263948,18.058427 19.9284081,17.9269663 20.3574475,17.6134831 C20.479065,17.7921348 20.6040607,17.8662921 20.7324347,17.8662921 C21.0499915,17.8662921 21.3844395,17.394382 21.7357789,16.952809 C21.840505,17.1213483 21.9486095,17.1820225 22.0600921,17.1820225 C22.1986009,17.1820225 22.340488,17.0842697 22.4857533,16.9865169 C22.6276403,16.888764 22.7762839,16.7910112 22.9249275,16.7910112 C23.046545,16.7910112 23.1681624,16.8550562 23.2931582,17.0370787 C23.2931582,16.5213483 23.36748,16.2651685 23.5127453,16.2651685 C23.6580106,16.2651685 23.8775977,16.541573 24.1613718,17.0842697 C24.2627197,16.6460674 24.3742024,16.3831461 24.4924416,16.3831461 C24.5329807,16.3831461 24.5735199,16.4134831 24.614059,16.4741573 C24.6377069,16.4134831 24.664733,16.3898876 24.6883808,16.3898876 C24.8336461,16.3898876 24.985668,17.1988764 25.1478246,17.2292135 C25.320116,17.5629213 25.499164,17.7011236 25.6883467,17.7011236 C25.9214469,17.7011236 26.1646818,17.4955056 26.4214298,17.1786517 C26.5666951,17.5460674 26.7187169,17.7280899 26.874117,17.7280899 C27.0430302,17.7280899 27.2186999,17.5089888 27.3977478,17.0741573 C27.6004436,17.0134831 27.8098959,16.7337079 28.0261048,16.7337079 C28.1646135,16.7337079 28.3065006,16.8550562 28.4517659,17.2258427 C28.5868964,17.4820225 28.722027,17.5696629 28.8605357,17.5696629 C29.0328272,17.5696629 29.2051186,17.4348315 29.3807883,17.2966292 C29.5530797,17.158427 29.7287494,17.0235955 29.9077973,17.0235955 C30.0226582,17.0235955 30.1408975,17.0808989 30.2557584,17.2359551 C30.5665586,17.2662921 30.8773588,17.4550562 31.1949155,17.5460674 C31.2962634,17.5764045 31.3976113,17.5932584 31.4989592,17.5932584 C31.7117898,17.5932584 31.9246204,17.5123596 32.1374509,17.2629213 C32.4178468,16.9426966 32.8401297,16.8213483 33.30633,16.8213483 C34.1103566,16.8213483 35.0427572,17.1752809 35.6001706,17.4752809 C35.7521925,17.1449438 35.9042143,16.8146067 36.0528579,16.4910112 C36.1710971,16.8719101 36.2825798,17.0269663 36.3940624,17.0269663 C36.785941,17.0269663 37.1947108,15.0516854 38.096707,14.3033708 C38.1777854,14.6370787 38.2588637,14.9674157 38.3433203,15.3011236 C38.4953421,14.805618 38.8466815,14.5831461 39.2115339,14.5831461 C39.7317864,14.5831461 40.2723085,15.0314607 40.3094694,15.8 C40.6,14.2460674 41.370244,14.1550562 42.1202184,14.1550562 C42.1742706,14.1550562 42.2249445,14.1550562 42.2756185,14.1550562 C42.3296707,14.1550562 42.3803447,14.1550562 42.4310186,14.1550562 C42.9715407,14.1550562 43.4681454,14.1044944 43.7248934,13.4640449 C43.8634021,13.9325843 44.0019109,14.1516854 44.1370415,14.1516854 C44.336359,14.1516854 44.52892,13.6831461 44.721481,12.8269663 C44.7620201,12.4797753 44.8059376,12.3685393 44.849855,12.3685393 C44.8903941,12.3685393 44.927555,12.4595506 44.9680942,12.5539326 C45.0052551,12.6449438 45.0457942,12.7359551 45.0829551,12.7359551 C45.120116,12.7359551 45.1538987,12.6550562 45.1910595,12.4123596 C45.2788944,12.2202247 45.363351,11.5595506 45.4478075,11.5595506 C45.5119945,11.5595506 45.5795598,11.9775281 45.6437468,13.3831461 C45.7045555,13.1606742 45.7653643,13.0764045 45.8227947,13.0764045 C45.9207644,13.0764045 46.0153557,13.2988764 46.1065688,13.5213483 C46.2011602,13.747191 46.2957516,13.9696629 46.3835864,13.9696629 C46.4207473,13.9696629 46.4579082,13.9325843 46.4950691,13.841573 C46.5626344,14.111236 46.6301996,14.2123596 46.6977649,14.2123596 C46.8937041,14.2123596 47.0862651,13.2752809 47.2686913,13.1539326 C47.3092305,13.0426966 47.3497697,13.0022472 47.3903088,13.0022472 C47.4477393,13.0022472 47.5017915,13.0898876 47.559222,13.1775281 C47.6132742,13.2651685 47.6673264,13.352809 47.7213786,13.352809 C47.8058352,13.352809 47.8835352,13.1539326 47.9612353,12.452809 C47.9713701,12.4561798 47.9781266,12.4595506 47.9848831,12.4595506 C48.0456919,12.4595506 48.1031223,12.3853933 48.1605528,12.311236 C48.2179833,12.2370787 48.2720355,12.1662921 48.329466,12.1662921 C48.4105443,12.1662921 48.4916226,12.3348315 48.5727009,12.9382022 C48.9510664,13.858427 50.1638628,13.8483146 50.4239891,14.6134831 C50.4881761,13.9123596 50.5726327,13.6494382 50.667224,13.6494382 C50.8158676,13.6494382 50.9847808,14.2865169 51.1334243,14.9269663 C51.2786896,15.5640449 51.4003071,16.2044944 51.4509811,16.2044944 L51.2178809,14.6674157 C51.2178809,14.4786517 51.2280157,14.3977528 51.244907,14.3977528 C51.2888244,14.3977528 51.3766593,14.8797753 51.4611159,15.358427 C51.5489507,15.8370787 51.6334073,16.3157303 51.6739464,16.3157303 C51.6773247,16.3157303 51.680703,16.3123596 51.6840812,16.305618 L51.5793551,14.7651685 C51.6570551,14.8191011 51.7482682,15.6314607 51.8597509,15.6314607 C51.8800205,15.6314607 51.9036683,15.6011236 51.9239379,15.5303371 C51.9847466,15.294382 52.0489336,14.4685393 52.1198772,14.4685393 C52.1300119,14.4685393 52.143525,14.4955056 52.157038,14.5629213 C52.1941989,14.8426966 52.2313598,14.9033708 52.271899,14.9033708 C52.285412,14.9033708 52.3023034,14.8932584 52.3158164,14.8865169 C52.3327077,14.8764045 52.3462208,14.8696629 52.3631121,14.8696629 C52.3867599,14.8696629 52.413786,14.8898876 52.4374339,14.9640449 C52.5185122,14.505618 52.6029688,13.9089888 52.6941819,13.9089888 C52.7178297,13.9089888 52.7448558,13.9561798 52.7685037,14.0640449 C52.798908,14.0370787 52.8293124,14.0202247 52.8563385,14.0202247 C52.9509299,14.0202247 53.0522778,14.1651685 53.1570039,14.5191011 C53.363078,14.8393258 53.5894216,15.9078652 53.8427913,15.9078652 C53.9306262,15.9078652 54.018461,15.7865169 54.1096741,15.4730337 C54.454257,15.5573034 54.7177615,15.8269663 54.9238355,15.8269663 C55.0049138,15.8269663 55.0758574,15.7865169 55.1400444,15.6752809 C55.1501792,15.6786517 55.1569357,15.6786517 55.1636922,15.6786517 C55.2312575,15.6786517 55.2920662,15.641573 55.3427401,15.6044944 C55.3967924,15.5674157 55.4407098,15.5303371 55.4846272,15.5303371 C55.5353011,15.5303371 55.5792186,15.5842697 55.623136,15.7629213 C55.6704317,15.7831461 55.7143491,15.7966292 55.7582665,15.7966292 C55.9271797,15.7966292 56.1129841,15.6179775 56.585941,15.0955056 C56.6568845,14.711236 56.7379628,14.5797753 56.8257976,14.5797753 C56.9170107,14.5797753 57.0149804,14.7213483 57.1230848,14.8595506 C57.2311892,15.0011236 57.3494284,15.1393258 57.4811807,15.1393258 C57.6061764,15.1393258 57.7446852,15.0044944 57.8899505,14.6033708 C58.0487289,14.5123596 58.217642,14.4719101 58.4000682,14.4719101 C58.9135642,14.4719101 59.5385429,14.788764 60.2986521,15.2033708 C60.7108002,15.2573034 61.0621396,15.2910112 61.3695615,15.2977528 L61.5384747,15.2842697 L61.6634704,15.2707865 L61.6567139,15.2808989 L62.3661491,15.1325843 L62.774919,15.2 C62.8897799,14.9404494 63.0080191,14.8494382 63.1363931,14.8494382 C63.2850367,14.8494382 63.4404368,14.9707865 63.6127282,15.088764 C63.7850196,15.2067416 63.9674458,15.3280899 64.1701416,15.3280899 C64.2951373,15.3280899 64.4268896,15.2808989 64.5620201,15.1629213 C64.8120116,15.1224719 65.0822726,14.4617978 65.3829381,14.4617978 C65.5518512,14.4617978 65.7308992,14.6741573 65.9200819,15.341573 C66.0281863,15.4157303 66.1362907,15.4426966 66.2477734,15.4426966 C66.3660126,15.4426966 66.4876301,15.4157303 66.6126258,15.3853933 C66.7342433,15.358427 66.8626173,15.3314607 66.9943696,15.3314607 C67.2274697,15.3314607 67.4707047,15.4157303 67.7274527,15.7426966 C67.8186658,15.8876404 67.9065006,15.9449438 67.9909572,15.9449438 C68.142979,15.9449438 68.2814878,15.7561798 68.4098618,15.5674157 C68.5382358,15.3786517 68.6530967,15.1932584 68.7578229,15.1932584 C68.8152534,15.1932584 68.8693056,15.247191 68.9233578,15.388764 C69.1463232,15.7730337 69.311858,16.147191 69.440232,16.147191 C69.4773929,16.147191 69.5145538,16.1134831 69.5449582,16.0292135 L69.8929193,16.2146067 C69.9064323,16.305618 69.9165671,16.3393258 69.9334585,16.3393258 C69.9942672,16.3393258 70.1057499,15.9044944 70.3962805,15.8876404 C70.5246545,16.241573 70.6834329,16.8044944 70.8895069,16.8044944 C70.9874765,16.8044944 71.095581,16.6797753 71.2138202,16.3460674 C71.4266507,16.4101124 71.6732639,16.5179775 71.9637946,16.5179775 C72.1800034,16.5179775 72.4164818,16.4606742 72.6799864,16.2820225 C73.2644259,16.7910112 73.7137349,17.0168539 74.0515612,17.0168539 C74.4299266,17.0168539 74.6731616,16.7370787 74.8285617,16.2516854 L74.9062617,16.0561798 L74.9434226,15.6617978 C74.9670705,15.5404494 74.9974748,15.4865169 75.038014,15.4865169 C75.1326054,15.4865169 75.2778707,15.752809 75.487323,16.0191011 C75.7001536,16.288764 75.9805494,16.5550562 76.3487801,16.5550562 C76.3622931,16.5550562 76.3791844,16.5516854 76.3926975,16.5516854 C77.1967241,16.2617978 77.6561679,15.8707865 77.8858898,15.8707865 C77.9230507,15.8707865 77.953455,15.8808989 77.9804811,15.9011236 C78.1156117,15.9550562 78.1156117,16.3258427 78.0514247,16.3258427 C78.0243986,16.3258427 77.9872377,16.2617978 77.939942,16.0898876 C77.8588637,16.2685393 77.7507593,16.3157303 77.6527896,16.3157303 C77.5953592,16.3157303 77.5413069,16.2988764 77.4973895,16.2853933 C77.4500938,16.2685393 77.4129329,16.2516854 77.3892851,16.2516854 C77.3318546,16.2516854 77.3723938,16.3662921 77.63252,16.9022472 C77.7642723,17.0067416 77.8960246,17.0337079 78.0311551,17.0337079 C78.1054769,17.0337079 78.1797987,17.0235955 78.2574987,17.0168539 C78.3351988,17.0067416 78.4128988,17 78.4905989,17 C78.6392425,17 78.7946426,17.0269663 78.9601774,17.1382022 C79.4669169,16.1910112 80.0614912,15.8134831 80.84187,15.7426966 C80.8520048,15.7393258 80.8621396,15.7359551 80.8722744,15.7359551 C81.0614571,15.7359551 81.2810442,16.4168539 81.5107661,17.1011236 C81.7438662,17.7820225 81.9871012,18.4662921 82.2235796,18.4662921 C82.2370926,18.4662921 82.2506057,18.4629213 82.2641188,18.4595506 C82.4195189,18.4157303 82.5816755,18.3955056 82.7505886,18.3955056 C83.1120628,18.3955056 83.5039413,18.4932584 83.9228459,18.6853933 C84.5444463,18.4662921 84.9565944,18.2707865 85.2437468,17.2561798 C85.3788773,17.3910112 85.4869817,17.488764 85.5748166,17.488764 C85.6727862,17.488764 85.7437297,17.3707865 85.8045385,17.0640449 C85.9498038,17.0910112 86.0241256,17.5258427 86.1862822,17.5258427 C86.2774953,17.5258427 86.402491,17.3842697 86.5849172,16.9494382 C86.8349087,16.4404494 87.2031394,16.5685393 87.7639311,16.4775281 C88.05784,16.811236 88.3348575,16.9393258 88.6017403,16.9393258 C88.9902406,16.9393258 89.3618495,16.6730337 89.7368367,16.4101124 C90.1118239,16.1438202 90.4935677,15.8808989 90.9057157,15.8808989 C90.959768,15.8808989 91.0104419,15.8842697 91.0644941,15.894382 C91.5577205,15.9752809 93.4191435,17.1449438 93.5272479,17.1449438 L93.5306262,17.1449438 C96.1926975,16.8348315 98.7196383,14.852809 101.415492,14.852809 C102.108036,14.852809 102.807337,14.9808989 103.526907,15.3044944 C103.624876,15.3820225 103.729602,15.4123596 103.834329,15.4123596 C104.023511,15.4123596 104.222829,15.3179775 104.435659,15.2235955 C104.64849,15.1292135 104.871455,15.0314607 105.111312,15.0314607 C105.324143,15.0314607 105.550486,15.1089888 105.790343,15.3348315 C106.077495,15.4561798 106.381539,15.5 106.705852,15.5 C106.895035,15.5 107.090974,15.4831461 107.29367,15.4595506 C107.847705,15.388764 108.445658,15.2539326 109.097663,15.1797753 C109.23955,15.1123596 109.378058,15.0921348 109.509811,15.0921348 C109.634806,15.0921348 109.756424,15.1089888 109.871285,15.1292135 C109.986146,15.1494382 110.097628,15.1662921 110.205733,15.1662921 C110.26992,15.1662921 110.330729,15.1595506 110.391537,15.1426966 C110.516533,15.4157303 110.634772,15.4966292 110.746255,15.4966292 C110.827333,15.4966292 110.908412,15.452809 110.982733,15.4123596 C111.060433,15.3685393 111.131377,15.3280899 111.20232,15.3280899 C111.256373,15.3280899 111.307047,15.3516854 111.357721,15.4191011 C111.715816,15.5505618 111.989456,15.988764 112.198908,15.988764 C112.307012,15.988764 112.394847,15.8707865 112.469169,15.5303371 C112.725917,15.1157303 112.790104,14.8730337 112.749565,14.8730337 C112.725917,14.8730337 112.648217,14.9910112 112.553626,15.247191 C112.577274,15.1865169 112.445521,15.1764045 112.300256,15.1764045 C112.263095,15.1764045 112.222556,15.1764045 112.185395,15.1764045 C112.148234,15.1764045 112.111073,15.1764045 112.080669,15.1764045 C111.874595,15.1764045 111.84419,15.1460674 112.692134,14.8764045 C113.459,14.6337079 114.854223,14.4988764 115.914997,14.4988764 C116.137963,14.4988764 116.344037,14.505618 116.526463,14.5191011 C119.168265,14.6910112 119.13786,15.5168539 121.776284,15.6921348 C121.455349,15.4561798 121.330353,14.805618 121.519536,14.3640449 C121.651288,14.711236 121.921549,14.8831461 122.195189,14.8831461 C122.50261,14.8831461 122.813411,14.6674157 122.928272,14.252809 C123.154615,14.2932584 123.472172,14.3067416 123.843781,14.3067416 C124.394438,14.3067416 125.066712,14.2730337 125.738987,14.2393258 C126.411261,14.205618 127.086913,14.1719101 127.647705,14.1719101 C128.401058,14.1719101 128.948336,14.2325843 129.01928,14.4314607 L128.870636,14.0101124 C128.874015,14.0101124 128.877393,14.0101124 128.884149,14.0101124 C129.009145,14.0101124 129.191571,14.5393258 129.448319,14.8831461 L129.444941,14.9910112 L129.522641,14.994382 L129.539533,15.0179775 C129.779389,15.0988764 129.931411,15.1292135 130.019246,15.1292135 C130.174646,15.1292135 130.130729,15.0314607 130.012489,14.9303371 C129.89425,14.8325843 129.701689,14.7314607 129.573315,14.7314607 C129.566559,14.7314607 129.559802,14.7314607 129.556424,14.7314607 C129.657772,13.8348315 129.806415,11.8224719 130.063163,11.8224719 C130.076676,11.8224719 130.096946,11.8292135 130.113837,11.8494382 C130.262481,11.9202247 130.441529,12.3348315 130.664494,12.3348315 C130.755707,12.3348315 130.850299,12.2674157 130.955025,12.0853933 C130.836786,12.294382 132.380652,12.4426966 134.110322,12.4426966 C135.975124,12.4426966 138.056134,12.2707865 138.505443,11.8224719 C138.941239,13.494382 141.001979,13.8921348 141.927623,13.8921348 C142.140454,13.8921348 142.292476,13.8719101 142.353284,13.841573 C142.441119,13.794382 142.535711,13.7741573 142.626924,13.7741573 C142.873537,13.7741573 143.123528,13.9089888 143.356629,14.0438202 C143.555946,14.158427 144.214707,14.188764 145.025491,14.188764 C145.461286,14.188764 145.941,14.1786517 146.413957,14.1719101 C146.886913,14.1617978 147.353114,14.1550562 147.761884,14.1550562 C148.552397,14.1550562 149.140215,14.1853933 149.184132,14.3101124 C149.28548,14.2831461 149.356424,14.252809 149.447637,14.252809 C149.576011,14.252809 149.741546,14.3168539 150.065859,14.5393258 C150.261798,14.5595506 150.515168,14.7449438 150.849616,14.7449438 C150.988125,14.7449438 151.140147,14.7146067 151.30906,14.6269663 C151.454325,14.7719101 151.613104,14.8191011 151.782017,14.8191011 C151.934039,14.8191011 152.092817,14.7820225 152.265108,14.7449438 C152.440778,14.7078652 152.623204,14.6707865 152.819143,14.6707865 C152.873196,14.6707865 152.930626,14.6741573 152.988057,14.6808989 C149.521959,16.2213483 146.052483,17.7348315 142.572872,19.2179775 L129.607098,24.5741573 C124.404573,26.6438202 119.185156,28.6191011 113.948848,30.4696629 C112.668487,31.0224719 111.445555,31.5483146 110.300324,32.0438202 C103.422181,35.0067416 99.2905648,36.7865169 99.2905648,36.7865169 C99.2905648,36.7865169 99.7533868,37.8483146 100.540522,39.6719101 C105.432247,44.0505618 108.746323,49.1168539 111.239481,54.6550562 C111.236103,54.658427 111.236103,54.658427 111.232725,54.658427 C111.965808,56.2831461 112.621191,57.9483146 113.229278,59.6505618 C113.739396,61.0797753 114.222488,62.5292135 114.678553,64.005618 C116.796724,70.9393258 118.364238,78.358427 120.560109,85.9258427 C121.39454,87.8539326 121.857362,88.9224719 121.857362,88.9224719 C121.857362,88.9224719 132.201604,84.4629213 147.430814,77.9 C148.231462,77.5561798 149.045624,77.2022472 149.873298,76.8449438 C160.285105,71.5966292 180.544549,62.6808989 199,54.7595506 L199,265.494382 L1,265.494382 L1,266 M62.9336973,14.5730337 C63.0181539,14.2932584 63.0688278,14.1988764 63.0857192,14.1988764 C63.1228801,14.1988764 63.0586931,14.5157303 62.9336973,14.5730337 M128.624023,13.9797753 C128.620645,13.5449438 128.627401,13.4 128.637536,13.4 C128.651049,13.4 128.671319,13.5449438 128.701723,13.7 L128.624023,13.9797753" id="path-1"></path>
        <path d="M199,265 L1,265 L1,105.222127 C2.69588807,106.451162 4.37150657,107.703703 6.00658591,109.006614 C10.4185975,112.525817 15.7630097,116.719982 19.6919297,116.719982 C20.5837912,116.719982 21.4047091,116.501711 22.1242791,116.01144 C26.2862993,113.163841 34.204948,100.739173 36.4886538,97.3744382 C37.8129329,95.4737998 39.1541034,93.5227911 40.4986521,91.5717824 C41.0797134,90.7222038 41.6607746,89.8726251 42.2452141,89.0196885 C42.8262754,88.1734678 43.4107149,87.3238892 44.0019109,86.4810266 C44.5187852,85.7153984 45.0491725,84.9430541 45.5863163,84.1539198 L45.5863163,84.1572778 C45.6538816,84.0598953 45.7180686,83.9658708 45.7788773,83.8718463 C45.9680601,83.5998468 46.1572428,83.3244893 46.3464255,83.0457737 C47.0795086,81.8268131 47.8328613,80.5877043 48.4983791,79.257929 C48.5085139,79.2411389 48.5186487,79.2277068 48.5287835,79.2142748 C48.5321617,79.2142748 48.5321617,79.2142748 48.5321617,79.2109168 C48.5422965,79.1974847 48.5524313,79.1874106 48.5625661,79.1739785 C48.5625661,79.1706205 48.5659444,79.1672625 48.5659444,79.1639045 C48.5760792,79.1538304 48.5828357,79.1437564 48.5929705,79.1303243 C48.5929705,79.1303243 48.5963487,79.1269663 48.5963487,79.1236083 C48.6064835,79.1135342 48.6132401,79.1001021 48.6233749,79.0900281 C48.6233749,79.0866701 48.6267531,79.0833121 48.6267531,79.079954 C48.6368879,79.06988 48.6436444,79.0598059 48.6537792,79.0463739 C48.6537792,79.0463739 48.6571575,79.0430158 48.6571575,79.0396578 C48.6672923,79.0295838 48.6740488,79.0161517 48.6841836,79.0060776 C48.6841836,79.0027196 48.6841836,79.0027196 48.6875618,78.9993616 C48.6943184,78.9859295 48.7044532,78.9758555 48.714588,78.9624234 C48.714588,78.9624234 48.714588,78.9590654 48.7179662,78.9590654 C48.7247227,78.9456333 48.7314793,78.9355592 48.7416141,78.9254852 C48.7449923,78.9221272 48.7449923,78.9187692 48.7483706,78.9120531 C48.7551271,78.9053371 48.7618836,78.895263 48.7686402,78.885189 C48.7720184,78.8818309 48.7753967,78.8751149 48.778775,78.8717569 C48.7855315,78.8616828 48.792288,78.8516088 48.7990445,78.8415347 C48.8024228,78.8381767 48.8058011,78.8348187 48.8058011,78.8314607 C48.8125576,78.8213866 48.8193141,78.8113126 48.8260706,78.8012385 C48.8294489,78.7978805 48.8328272,78.7945225 48.8362054,78.7911645 C48.842962,78.7810904 48.8463402,78.7743744 48.8530967,78.7643003 C48.856475,78.7575843 48.8632315,78.7542263 48.8666098,78.7475102 C48.8699881,78.7407942 48.8767446,78.7340781 48.8801228,78.7273621 C48.8835011,78.7206461 48.8902576,78.71393 48.8936359,78.707214 C48.8970142,78.700498 48.9037707,78.6937819 48.907149,78.6870659 C48.9105272,78.6803498 48.9172837,78.6736338 48.920662,78.6669178 C48.9240403,78.6602017 48.9274185,78.6568437 48.9307968,78.6534857 C48.9375533,78.6434116 48.9443098,78.6333376 48.9510664,78.6232635 C48.9510664,78.6232635 48.9510664,78.6232635 48.9510664,78.6199055 C53.5995564,71.8098442 48.9544446,68.3376532 53.3968606,60.3556435 C53.3968606,60.3556435 52.9543081,60.0534219 52.1637946,59.4892748 C43.2046408,49.667071 23.2120798,62.5786517 23.8911107,41.9033325 C23.2424842,41.446642 22.5634533,41.0033836 21.8810442,40.5634831 C14.79007,35.9999362 7.8105784,31.2349081 1,25.9023749 L1,2 L199,2 L199,265" id="path-3"></path>
    </defs>
    <g id="Page-1" stroke="none" stroke-width="1" fill="none" fill-rule="evenodd">
        <g id="Artboard" transform="translate(-93.000000, -71.000000)">
            <g id="Group-3" transform="translate(93.000000, 71.000000)">
                <polygon id="Fill-1855" fill="#EFF2F3" points="21 285 220 285 220 22 21 22"></polygon>
                <g id="Group-1858" transform="translate(21.000000, 20.000000)">
                    <mask id="mask-2" fill="white">
                        <use xlink:href="#path-1"></use>
                    </mask>
                    <g id="Clip-1857"></g>
                    <path d="M1,266 L1,2 C1,2.49550562 1,2.99101124 1,3.47977528 C1,7.54157303 1,11.1550562 1,11.1550562 C1,11.7820225 1,12.4089888 1,13.0359551 C1,14.3573034 1,18.2808989 1,18.2808989 C1.192561,18.5404494 1.40876983,18.6483146 1.76348746,18.6483146 C2.20941819,18.6483146 2.87493602,18.4764045 4.00327589,18.2202247 L5.38836376,18.2674157 C5.39174202,18.2606742 5.40525508,18.2606742 5.43228118,18.2606742 C5.70254223,18.2606742 7.15857362,18.5505618 7.52004777,19.0460674 C7.70923051,18.7662921 7.97273503,18.6752809 8.24637434,18.6752809 C8.60447023,18.6752809 8.97945743,18.8303371 9.24296195,18.911236 C9.24971848,18.911236 9.25309674,18.911236 9.25985327,18.911236 C9.33079679,18.911236 9.40511858,18.9820225 9.48281863,19.052809 C9.55714042,19.1235955 9.63484047,19.1977528 9.71591879,19.1977528 C9.83415799,19.1977528 9.95577546,19.0393258 10.0875277,18.4865169 C10.1280669,18.5033708 10.1719843,18.5101124 10.2125235,18.5101124 C10.4794062,18.5101124 10.7395325,18.2202247 10.9929022,18.0280899 C11.0131718,17.947191 11.0503327,17.9134831 11.1043849,17.9134831 C11.2361372,17.9134831 11.4658591,18.105618 11.7631462,18.2977528 C12.0604334,18.4898876 12.4219075,18.6820225 12.8205426,18.6820225 C13.0536427,18.6820225 13.3002559,18.6179775 13.5536257,18.4460674 C13.6110561,18.405618 13.6853779,18.388764 13.7698345,18.388764 C13.955639,18.388764 14.1954956,18.4662921 14.4556219,18.5438202 C14.7157482,18.6213483 14.9927657,18.6988764 15.252892,18.6988764 C15.6751749,18.6988764 16.0535404,18.4966292 16.22921,17.7685393 C16.2832622,17.7280899 16.3406927,17.7078652 16.4015015,17.7078652 C16.6041972,17.7078652 16.8440539,17.8898876 17.1008019,18.0719101 C17.3575499,18.2539326 17.6311892,18.4359551 17.8879372,18.4359551 C17.962259,18.4359551 18.0365808,18.4191011 18.1109026,18.3820225 C18.1852244,18.341573 18.2629244,18.3280899 18.3406245,18.3280899 C18.3946767,18.3280899 18.4487289,18.3348315 18.5061594,18.3382022 C18.5602116,18.3449438 18.6142638,18.3516854 18.6716943,18.3516854 C18.8270944,18.3516854 18.9858727,18.3078652 19.1514076,18.105618 C19.5263948,18.058427 19.9284081,17.9269663 20.3574475,17.6134831 C20.479065,17.7921348 20.6040607,17.8662921 20.7324347,17.8662921 C21.0499915,17.8662921 21.3844395,17.394382 21.7357789,16.952809 C21.840505,17.1213483 21.9486095,17.1820225 22.0600921,17.1820225 C22.1986009,17.1820225 22.340488,17.0842697 22.4857533,16.9865169 C22.6276403,16.888764 22.7762839,16.7910112 22.9249275,16.7910112 C23.046545,16.7910112 23.1681624,16.8550562 23.2931582,17.0370787 C23.2931582,16.5213483 23.36748,16.2651685 23.5127453,16.2651685 C23.6580106,16.2651685 23.8775977,16.541573 24.1613718,17.0842697 C24.2627197,16.6460674 24.3742024,16.3831461 24.4924416,16.3831461 C24.5329807,16.3831461 24.5735199,16.4134831 24.614059,16.4741573 C24.6377069,16.4134831 24.664733,16.3898876 24.6883808,16.3898876 C24.8336461,16.3898876 24.985668,17.1988764 25.1478246,17.2292135 C25.320116,17.5629213 25.499164,17.7011236 25.6883467,17.7011236 C25.9214469,17.7011236 26.1646818,17.4955056 26.4214298,17.1786517 C26.5666951,17.5460674 26.7187169,17.7280899 26.874117,17.7280899 C27.0430302,17.7280899 27.2186999,17.5089888 27.3977478,17.0741573 C27.6004436,17.0134831 27.8098959,16.7337079 28.0261048,16.7337079 C28.1646135,16.7337079 28.3065006,16.8550562 28.4517659,17.2258427 C28.5868964,17.4820225 28.722027,17.5696629 28.8605357,17.5696629 C29.0328272,17.5696629 29.2051186,17.4348315 29.3807883,17.2966292 C29.5530797,17.158427 29.7287494,17.0235955 29.9077973,17.0235955 C30.0226582,17.0235955 30.1408975,17.0808989 30.2557584,17.2359551 C30.5665586,17.2662921 30.8773588,17.4550562 31.1949155,17.5460674 C31.2962634,17.5764045 31.3976113,17.5932584 31.4989592,17.5932584 C31.7117898,17.5932584 31.9246204,17.5123596 32.1374509,17.2629213 C32.4178468,16.9426966 32.8401297,16.8213483 33.30633,16.8213483 C34.1103566,16.8213483 35.0427572,17.1752809 35.6001706,17.4752809 C35.7521925,17.1449438 35.9042143,16.8146067 36.0528579,16.4910112 C36.1710971,16.8719101 36.2825798,17.0269663 36.3940624,17.0269663 C36.785941,17.0269663 37.1947108,15.0516854 38.096707,14.3033708 C38.1777854,14.6370787 38.2588637,14.9674157 38.3433203,15.3011236 C38.4953421,14.805618 38.8466815,14.5831461 39.2115339,14.5831461 C39.7317864,14.5831461 40.2723085,15.0314607 40.3094694,15.8 C40.6,14.2460674 41.370244,14.1550562 42.1202184,14.1550562 C42.1742706,14.1550562 42.2249445,14.1550562 42.2756185,14.1550562 C42.3296707,14.1550562 42.3803447,14.1550562 42.4310186,14.1550562 C42.9715407,14.1550562 43.4681454,14.1044944 43.7248934,13.4640449 C43.8634021,13.9325843 44.0019109,14.1516854 44.1370415,14.1516854 C44.336359,14.1516854 44.52892,13.6831461 44.721481,12.8269663 C44.7620201,12.4797753 44.8059376,12.3685393 44.849855,12.3685393 C44.8903941,12.3685393 44.927555,12.4595506 44.9680942,12.5539326 C45.0052551,12.6449438 45.0457942,12.7359551 45.0829551,12.7359551 C45.120116,12.7359551 45.1538987,12.6550562 45.1910595,12.4123596 C45.2788944,12.2202247 45.363351,11.5595506 45.4478075,11.5595506 C45.5119945,11.5595506 45.5795598,11.9775281 45.6437468,13.3831461 C45.7045555,13.1606742 45.7653643,13.0764045 45.8227947,13.0764045 C45.9207644,13.0764045 46.0153557,13.2988764 46.1065688,13.5213483 C46.2011602,13.747191 46.2957516,13.9696629 46.3835864,13.9696629 C46.4207473,13.9696629 46.4579082,13.9325843 46.4950691,13.841573 C46.5626344,14.111236 46.6301996,14.2123596 46.6977649,14.2123596 C46.8937041,14.2123596 47.0862651,13.2752809 47.2686913,13.1539326 C47.3092305,13.0426966 47.3497697,13.0022472 47.3903088,13.0022472 C47.4477393,13.0022472 47.5017915,13.0898876 47.559222,13.1775281 C47.6132742,13.2651685 47.6673264,13.352809 47.7213786,13.352809 C47.8058352,13.352809 47.8835352,13.1539326 47.9612353,12.452809 C47.9713701,12.4561798 47.9781266,12.4595506 47.9848831,12.4595506 C48.0456919,12.4595506 48.1031223,12.3853933 48.1605528,12.311236 C48.2179833,12.2370787 48.2720355,12.1662921 48.329466,12.1662921 C48.4105443,12.1662921 48.4916226,12.3348315 48.5727009,12.9382022 C48.9510664,13.858427 50.1638628,13.8483146 50.4239891,14.6134831 C50.4881761,13.9123596 50.5726327,13.6494382 50.667224,13.6494382 C50.8158676,13.6494382 50.9847808,14.2865169 51.1334243,14.9269663 C51.2786896,15.5640449 51.4003071,16.2044944 51.4509811,16.2044944 L51.2178809,14.6674157 C51.2178809,14.4786517 51.2280157,14.3977528 51.244907,14.3977528 C51.2888244,14.3977528 51.3766593,14.8797753 51.4611159,15.358427 C51.5489507,15.8370787 51.6334073,16.3157303 51.6739464,16.3157303 C51.6773247,16.3157303 51.680703,16.3123596 51.6840812,16.305618 L51.5793551,14.7651685 C51.6570551,14.8191011 51.7482682,15.6314607 51.8597509,15.6314607 C51.8800205,15.6314607 51.9036683,15.6011236 51.9239379,15.5303371 C51.9847466,15.294382 52.0489336,14.4685393 52.1198772,14.4685393 C52.1300119,14.4685393 52.143525,14.4955056 52.157038,14.5629213 C52.1941989,14.8426966 52.2313598,14.9033708 52.271899,14.9033708 C52.285412,14.9033708 52.3023034,14.8932584 52.3158164,14.8865169 C52.3327077,14.8764045 52.3462208,14.8696629 52.3631121,14.8696629 C52.3867599,14.8696629 52.413786,14.8898876 52.4374339,14.9640449 C52.5185122,14.505618 52.6029688,13.9089888 52.6941819,13.9089888 C52.7178297,13.9089888 52.7448558,13.9561798 52.7685037,14.0640449 C52.798908,14.0370787 52.8293124,14.0202247 52.8563385,14.0202247 C52.9509299,14.0202247 53.0522778,14.1651685 53.1570039,14.5191011 C53.363078,14.8393258 53.5894216,15.9078652 53.8427913,15.9078652 C53.9306262,15.9078652 54.018461,15.7865169 54.1096741,15.4730337 C54.454257,15.5573034 54.7177615,15.8269663 54.9238355,15.8269663 C55.0049138,15.8269663 55.0758574,15.7865169 55.1400444,15.6752809 C55.1501792,15.6786517 55.1569357,15.6786517 55.1636922,15.6786517 C55.2312575,15.6786517 55.2920662,15.641573 55.3427401,15.6044944 C55.3967924,15.5674157 55.4407098,15.5303371 55.4846272,15.5303371 C55.5353011,15.5303371 55.5792186,15.5842697 55.623136,15.7629213 C55.6704317,15.7831461 55.7143491,15.7966292 55.7582665,15.7966292 C55.9271797,15.7966292 56.1129841,15.6179775 56.585941,15.0955056 C56.6568845,14.711236 56.7379628,14.5797753 56.8257976,14.5797753 C56.9170107,14.5797753 57.0149804,14.7213483 57.1230848,14.8595506 C57.2311892,15.0011236 57.3494284,15.1393258 57.4811807,15.1393258 C57.6061764,15.1393258 57.7446852,15.0044944 57.8899505,14.6033708 C58.0487289,14.5123596 58.217642,14.4719101 58.4000682,14.4719101 C58.9135642,14.4719101 59.5385429,14.788764 60.2986521,15.2033708 C60.7108002,15.2573034 61.0621396,15.2910112 61.3695615,15.2977528 L61.5384747,15.2842697 L61.6634704,15.2707865 L61.6567139,15.2808989 L62.3661491,15.1325843 L62.774919,15.2 C62.8897799,14.9404494 63.0080191,14.8494382 63.1363931,14.8494382 C63.2850367,14.8494382 63.4404368,14.9707865 63.6127282,15.088764 C63.7850196,15.2067416 63.9674458,15.3280899 64.1701416,15.3280899 C64.2951373,15.3280899 64.4268896,15.2808989 64.5620201,15.1629213 C64.8120116,15.1224719 65.0822726,14.4617978 65.3829381,14.4617978 C65.5518512,14.4617978 65.7308992,14.6741573 65.9200819,15.341573 C66.0281863,15.4157303 66.1362907,15.4426966 66.2477734,15.4426966 C66.3660126,15.4426966 66.4876301,15.4157303 66.6126258,15.3853933 C66.7342433,15.358427 66.8626173,15.3314607 66.9943696,15.3314607 C67.2274697,15.3314607 67.4707047,15.4157303 67.7274527,15.7426966 C67.8186658,15.8876404 67.9065006,15.9449438 67.9909572,15.9449438 C68.142979,15.9449438 68.2814878,15.7561798 68.4098618,15.5674157 C68.5382358,15.3786517 68.6530967,15.1932584 68.7578229,15.1932584 C68.8152534,15.1932584 68.8693056,15.247191 68.9233578,15.388764 C69.1463232,15.7730337 69.311858,16.147191 69.440232,16.147191 C69.4773929,16.147191 69.5145538,16.1134831 69.5449582,16.0292135 L69.8929193,16.2146067 C69.9064323,16.305618 69.9165671,16.3393258 69.9334585,16.3393258 C69.9942672,16.3393258 70.1057499,15.9044944 70.3962805,15.8876404 C70.5246545,16.241573 70.6834329,16.8044944 70.8895069,16.8044944 C70.9874765,16.8044944 71.095581,16.6797753 71.2138202,16.3460674 C71.4266507,16.4101124 71.6732639,16.5179775 71.9637946,16.5179775 C72.1800034,16.5179775 72.4164818,16.4606742 72.6799864,16.2820225 C73.2644259,16.7910112 73.7137349,17.0168539 74.0515612,17.0168539 C74.4299266,17.0168539 74.6731616,16.7370787 74.8285617,16.2516854 L74.9062617,16.0561798 L74.9434226,15.6617978 C74.9670705,15.5404494 74.9974748,15.4865169 75.038014,15.4865169 C75.1326054,15.4865169 75.2778707,15.752809 75.487323,16.0191011 C75.7001536,16.288764 75.9805494,16.5550562 76.3487801,16.5550562 C76.3622931,16.5550562 76.3791844,16.5516854 76.3926975,16.5516854 C77.1967241,16.2617978 77.6561679,15.8707865 77.8858898,15.8707865 C77.9230507,15.8707865 77.953455,15.8808989 77.9804811,15.9011236 C78.1156117,15.9550562 78.1156117,16.3258427 78.0514247,16.3258427 C78.0243986,16.3258427 77.9872377,16.2617978 77.939942,16.0898876 C77.8588637,16.2685393 77.7507593,16.3157303 77.6527896,16.3157303 C77.5953592,16.3157303 77.5413069,16.2988764 77.4973895,16.2853933 C77.4500938,16.2685393 77.4129329,16.2516854 77.3892851,16.2516854 C77.3318546,16.2516854 77.3723938,16.3662921 77.63252,16.9022472 C77.7642723,17.0067416 77.8960246,17.0337079 78.0311551,17.0337079 C78.1054769,17.0337079 78.1797987,17.0235955 78.2574987,17.0168539 C78.3351988,17.0067416 78.4128988,17 78.4905989,17 C78.6392425,17 78.7946426,17.0269663 78.9601774,17.1382022 C79.4669169,16.1910112 80.0614912,15.8134831 80.84187,15.7426966 C80.8520048,15.7393258 80.8621396,15.7359551 80.8722744,15.7359551 C81.0614571,15.7359551 81.2810442,16.4168539 81.5107661,17.1011236 C81.7438662,17.7820225 81.9871012,18.4662921 82.2235796,18.4662921 C82.2370926,18.4662921 82.2506057,18.4629213 82.2641188,18.4595506 C82.4195189,18.4157303 82.5816755,18.3955056 82.7505886,18.3955056 C83.1120628,18.3955056 83.5039413,18.4932584 83.9228459,18.6853933 C84.5444463,18.4662921 84.9565944,18.2707865 85.2437468,17.2561798 C85.3788773,17.3910112 85.4869817,17.488764 85.5748166,17.488764 C85.6727862,17.488764 85.7437297,17.3707865 85.8045385,17.0640449 C85.9498038,17.0910112 86.0241256,17.5258427 86.1862822,17.5258427 C86.2774953,17.5258427 86.402491,17.3842697 86.5849172,16.9494382 C86.8349087,16.4404494 87.2031394,16.5685393 87.7639311,16.4775281 C88.05784,16.811236 88.3348575,16.9393258 88.6017403,16.9393258 C88.9902406,16.9393258 89.3618495,16.6730337 89.7368367,16.4101124 C90.1118239,16.1438202 90.4935677,15.8808989 90.9057157,15.8808989 C90.959768,15.8808989 91.0104419,15.8842697 91.0644941,15.894382 C91.5577205,15.9752809 93.4191435,17.1449438 93.5272479,17.1449438 L93.5306262,17.1449438 C96.1926975,16.8348315 98.7196383,14.852809 101.415492,14.852809 C102.108036,14.852809 102.807337,14.9808989 103.526907,15.3044944 C103.624876,15.3820225 103.729602,15.4123596 103.834329,15.4123596 C104.023511,15.4123596 104.222829,15.3179775 104.435659,15.2235955 C104.64849,15.1292135 104.871455,15.0314607 105.111312,15.0314607 C105.324143,15.0314607 105.550486,15.1089888 105.790343,15.3348315 C106.077495,15.4561798 106.381539,15.5 106.705852,15.5 C106.895035,15.5 107.090974,15.4831461 107.29367,15.4595506 C107.847705,15.388764 108.445658,15.2539326 109.097663,15.1797753 C109.23955,15.1123596 109.378058,15.0921348 109.509811,15.0921348 C109.634806,15.0921348 109.756424,15.1089888 109.871285,15.1292135 C109.986146,15.1494382 110.097628,15.1662921 110.205733,15.1662921 C110.26992,15.1662921 110.330729,15.1595506 110.391537,15.1426966 C110.516533,15.4157303 110.634772,15.4966292 110.746255,15.4966292 C110.827333,15.4966292 110.908412,15.452809 110.982733,15.4123596 C111.060433,15.3685393 111.131377,15.3280899 111.20232,15.3280899 C111.256373,15.3280899 111.307047,15.3516854 111.357721,15.4191011 C111.715816,15.5505618 111.989456,15.988764 112.198908,15.988764 C112.307012,15.988764 112.394847,15.8707865 112.469169,15.5303371 C112.725917,15.1157303 112.790104,14.8730337 112.749565,14.8730337 C112.725917,14.8730337 112.648217,14.9910112 112.553626,15.247191 C112.577274,15.1865169 112.445521,15.1764045 112.300256,15.1764045 C112.263095,15.1764045 112.222556,15.1764045 112.185395,15.1764045 C112.148234,15.1764045 112.111073,15.1764045 112.080669,15.1764045 C111.874595,15.1764045 111.84419,15.1460674 112.692134,14.8764045 C113.459,14.6337079 114.854223,14.4988764 115.914997,14.4988764 C116.137963,14.4988764 116.344037,14.505618 116.526463,14.5191011 C119.168265,14.6910112 119.13786,15.5168539 121.776284,15.6921348 C121.455349,15.4561798 121.330353,14.805618 121.519536,14.3640449 C121.651288,14.711236 121.921549,14.8831461 122.195189,14.8831461 C122.50261,14.8831461 122.813411,14.6674157 122.928272,14.252809 C123.154615,14.2932584 123.472172,14.3067416 123.843781,14.3067416 C124.394438,14.3067416 125.066712,14.2730337 125.738987,14.2393258 C126.411261,14.205618 127.086913,14.1719101 127.647705,14.1719101 C128.401058,14.1719101 128.948336,14.2325843 129.01928,14.4314607 L128.870636,14.0101124 C128.874015,14.0101124 128.877393,14.0101124 128.884149,14.0101124 C129.009145,14.0101124 129.191571,14.5393258 129.448319,14.8831461 L129.444941,14.9910112 L129.522641,14.994382 L129.539533,15.0179775 C129.779389,15.0988764 129.931411,15.1292135 130.019246,15.1292135 C130.174646,15.1292135 130.130729,15.0314607 130.012489,14.9303371 C129.89425,14.8325843 129.701689,14.7314607 129.573315,14.7314607 C129.566559,14.7314607 129.559802,14.7314607 129.556424,14.7314607 C129.657772,13.8348315 129.806415,11.8224719 130.063163,11.8224719 C130.076676,11.8224719 130.096946,11.8292135 130.113837,11.8494382 C130.262481,11.9202247 130.441529,12.3348315 130.664494,12.3348315 C130.755707,12.3348315 130.850299,12.2674157 130.955025,12.0853933 C130.836786,12.294382 132.380652,12.4426966 134.110322,12.4426966 C135.975124,12.4426966 138.056134,12.2707865 138.505443,11.8224719 C138.941239,13.494382 141.001979,13.8921348 141.927623,13.8921348 C142.140454,13.8921348 142.292476,13.8719101 142.353284,13.841573 C142.441119,13.794382 142.535711,13.7741573 142.626924,13.7741573 C142.873537,13.7741573 143.123528,13.9089888 143.356629,14.0438202 C143.555946,14.158427 144.214707,14.188764 145.025491,14.188764 C145.461286,14.188764 145.941,14.1786517 146.413957,14.1719101 C146.886913,14.1617978 147.353114,14.1550562 147.761884,14.1550562 C148.552397,14.1550562 149.140215,14.1853933 149.184132,14.3101124 C149.28548,14.2831461 149.356424,14.252809 149.447637,14.252809 C149.576011,14.252809 149.741546,14.3168539 150.065859,14.5393258 C150.261798,14.5595506 150.515168,14.7449438 150.849616,14.7449438 C150.988125,14.7449438 151.140147,14.7146067 151.30906,14.6269663 C151.454325,14.7719101 151.613104,14.8191011 151.782017,14.8191011 C151.934039,14.8191011 152.092817,14.7820225 152.265108,14.7449438 C152.440778,14.7078652 152.623204,14.6707865 152.819143,14.6707865 C152.873196,14.6707865 152.930626,14.6741573 152.988057,14.6808989 C149.521959,16.2213483 146.052483,17.7348315 142.572872,19.2179775 L129.607098,24.5741573 C124.404573,26.6438202 119.185156,28.6191011 113.948848,30.4696629 C112.668487,31.0224719 111.445555,31.5483146 110.300324,32.0438202 C103.422181,35.0067416 99.2905648,36.7865169 99.2905648,36.7865169 C99.2905648,36.7865169 99.7533868,37.8483146 100.540522,39.6719101 C105.432247,44.0505618 108.746323,49.1168539 111.239481,54.6550562 C111.236103,54.658427 111.236103,54.658427 111.232725,54.658427 C111.965808,56.2831461 112.621191,57.9483146 113.229278,59.6505618 C113.739396,61.0797753 114.222488,62.5292135 114.678553,64.005618 C116.796724,70.9393258 118.364238,78.358427 120.560109,85.9258427 C121.39454,87.8539326 121.857362,88.9224719 121.857362,88.9224719 C121.857362,88.9224719 132.201604,84.4629213 147.430814,77.9 C148.231462,77.5561798 149.045624,77.2022472 149.873298,76.8449438 C160.285105,71.5966292 180.544549,62.6808989 199,54.7595506 L199,265.494382 L1,265.494382 L1,266 M62.9336973,14.5730337 C63.0181539,14.2932584 63.0688278,14.1988764 63.0857192,14.1988764 C63.1228801,14.1988764 63.0586931,14.5157303 62.9336973,14.5730337 M128.624023,13.9797753 C128.620645,13.5449438 128.627401,13.4 128.637536,13.4 C128.651049,13.4 128.671319,13.5449438 128.701723,13.7 L128.624023,13.9797753" id="Fill-1856" mask="url(#mask-2)"></path>
                </g>
                <polygon id="Fill-1861" fill="#EFF2F3" points="21 549 220 549 220 285 21 285"></polygon>
                <g id="Group-1864" transform="translate(21.000000, 283.000000)">
                    <mask id="mask-4" fill="white">
                        <use xlink:href="#path-3"></use>
                    </mask>
                    <g id="Clip-1863"></g>
                    <path d="M199,265 L1,265 L1,105.222127 C2.69588807,106.451162 4.37150657,107.703703 6.00658591,109.006614 C10.4185975,112.525817 15.7630097,116.719982 19.6919297,116.719982 C20.5837912,116.719982 21.4047091,116.501711 22.1242791,116.01144 C26.2862993,113.163841 34.204948,100.739173 36.4886538,97.3744382 C37.8129329,95.4737998 39.1541034,93.5227911 40.4986521,91.5717824 C41.0797134,90.7222038 41.6607746,89.8726251 42.2452141,89.0196885 C42.8262754,88.1734678 43.4107149,87.3238892 44.0019109,86.4810266 C44.5187852,85.7153984 45.0491725,84.9430541 45.5863163,84.1539198 L45.5863163,84.1572778 C45.6538816,84.0598953 45.7180686,83.9658708 45.7788773,83.8718463 C45.9680601,83.5998468 46.1572428,83.3244893 46.3464255,83.0457737 C47.0795086,81.8268131 47.8328613,80.5877043 48.4983791,79.257929 C48.5085139,79.2411389 48.5186487,79.2277068 48.5287835,79.2142748 C48.5321617,79.2142748 48.5321617,79.2142748 48.5321617,79.2109168 C48.5422965,79.1974847 48.5524313,79.1874106 48.5625661,79.1739785 C48.5625661,79.1706205 48.5659444,79.1672625 48.5659444,79.1639045 C48.5760792,79.1538304 48.5828357,79.1437564 48.5929705,79.1303243 C48.5929705,79.1303243 48.5963487,79.1269663 48.5963487,79.1236083 C48.6064835,79.1135342 48.6132401,79.1001021 48.6233749,79.0900281 C48.6233749,79.0866701 48.6267531,79.0833121 48.6267531,79.079954 C48.6368879,79.06988 48.6436444,79.0598059 48.6537792,79.0463739 C48.6537792,79.0463739 48.6571575,79.0430158 48.6571575,79.0396578 C48.6672923,79.0295838 48.6740488,79.0161517 48.6841836,79.0060776 C48.6841836,79.0027196 48.6841836,79.0027196 48.6875618,78.9993616 C48.6943184,78.9859295 48.7044532,78.9758555 48.714588,78.9624234 C48.714588,78.9624234 48.714588,78.9590654 48.7179662,78.9590654 C48.7247227,78.9456333 48.7314793,78.9355592 48.7416141,78.9254852 C48.7449923,78.9221272 48.7449923,78.9187692 48.7483706,78.9120531 C48.7551271,78.9053371 48.7618836,78.895263 48.7686402,78.885189 C48.7720184,78.8818309 48.7753967,78.8751149 48.778775,78.8717569 C48.7855315,78.8616828 48.792288,78.8516088 48.7990445,78.8415347 C48.8024228,78.8381767 48.8058011,78.8348187 48.8058011,78.8314607 C48.8125576,78.8213866 48.8193141,78.8113126 48.8260706,78.8012385 C48.8294489,78.7978805 48.8328272,78.7945225 48.8362054,78.7911645 C48.842962,78.7810904 48.8463402,78.7743744 48.8530967,78.7643003 C48.856475,78.7575843 48.8632315,78.7542263 48.8666098,78.7475102 C48.8699881,78.7407942 48.8767446,78.7340781 48.8801228,78.7273621 C48.8835011,78.7206461 48.8902576,78.71393 48.8936359,78.707214 C48.8970142,78.700498 48.9037707,78.6937819 48.907149,78.6870659 C48.9105272,78.6803498 48.9172837,78.6736338 48.920662,78.6669178 C48.9240403,78.6602017 48.9274185,78.6568437 48.9307968,78.6534857 C48.9375533,78.6434116 48.9443098,78.6333376 48.9510664,78.6232635 C48.9510664,78.6232635 48.9510664,78.6232635 48.9510664,78.6199055 C53.5995564,71.8098442 48.9544446,68.3376532 53.3968606,60.3556435 C53.3968606,60.3556435 52.9543081,60.0534219 52.1637946,59.4892748 C43.2046408,49.667071 23.2120798,62.5786517 23.8911107,41.9033325 C23.2424842,41.446642 22.5634533,41.0033836 21.8810442,40.5634831 C14.79007,35.9999362 7.8105784,31.2349081 1,25.9023749 L1,2 L199,2 L199,265" id="Fill-1862" mask="url(#mask-4)"></path>
                </g>
                <path d="M149.954211,33.344 C149.950211,32.316 149.974211,32.648 150.046211,33.012 L149.954211,33.344 M82.9036279,34.2218188 C83.1916279,33.2778188 83.1276279,34.1178188 82.9036279,34.2218188 M220,11.5050271 C219.857396,11.2727147 219.68763,11.2188451 219.483911,11.7878423 C219.11382,11.6767364 218.631684,11.4376902 218.013735,11.8551793 C216.764255,10.7811549 216.146306,10.9629647 215.854308,11.8821141 L215.77282,12.0807581 L215.735472,12.4713124 C215.653984,12.878701 215.491008,12.4982472 215.185429,12.1144266 C214.964733,11.8383451 214.66934,11.5622635 214.278877,11.5858315 C213.341768,11.9157825 212.880003,12.3871412 212.683075,12.2322662 C212.489541,12.1615624 212.567634,11.4545244 212.723818,12.0437228 C212.852841,11.7609076 213.042979,11.8080434 213.168606,11.8518124 C213.334977,11.9124157 213.389302,11.973019 213.032793,11.2323125 C212.825678,11.0707038 212.618563,11.0942717 212.401263,11.1178397 C212.180566,11.1414076 211.949684,11.1649755 211.695035,11 C211.189132,11.9427173 210.591554,12.3231711 209.807234,12.3905081 C209.613701,12.4713124 209.406586,12.3534727 209.18589,12.2356331 C208.965194,12.1144266 208.730916,11.99322 208.483057,12.0807581 C207.98734,12.215432 207.433902,12.1346276 206.812558,11.8551793 C206.191213,12.0740244 205.773588,12.2659347 205.488381,13.2793558 C205.199778,12.9965406 205.036803,12.8854347 204.921362,13.4678993 C204.693875,13.430864 204.64634,12.3871412 204.140437,13.585739 C203.885787,14.0974998 203.515697,13.9661927 202.952073,14.0604645 C202.670261,13.7372471 202.337519,13.5756384 201.947057,13.6194074 C201.55999,13.6699101 201.108412,13.5419699 200.592322,14.4644862 C200.347859,14.666497 200.120372,14.6193612 199.906466,14.5755921 C199.665398,14.5217226 199.441307,14.467853 199.234192,14.777603 C198.847125,14.7473014 198.517779,14.4577525 198.246153,14.622728 C197.869271,14.1109672 197.590855,14.181671 197.397321,14.2557416 C197.309043,14.2860433 197.237741,14.3163449 197.18002,14.2961438 L197.01365,13.6194074 C197.034021,13.4443314 197.07137,13.5520705 197.115509,13.6598096 C197.183416,13.8146846 197.268299,13.9695596 197.366763,13.275989 C197.685924,13.23222 198.100154,13.2052852 198.100154,12.4477445 C198.100154,12.2053314 198.028852,12.3905081 197.90662,12.5756847 C197.80476,12.723826 197.672343,12.8719673 197.516158,12.8012635 C197.169834,12.2625678 196.70128,13.319758 196.232725,13.6160406 C195.770961,14.0436302 195.302406,14.0301628 194.952687,14.0974998 C194.77613,13.8550868 194.630131,14.0671982 194.528272,14.2793096 C194.426412,14.4880541 194.368691,14.6967987 194.368691,14.4644862 C194.368691,14.865141 194.103856,14.7405677 193.703208,14.6159943 C193.489302,14.5486574 193.238048,14.4813204 192.969817,14.4947878 C192.728749,14.6328286 192.4741,14.6126275 192.219451,14.5957932 C192.05987,14.5856927 191.90029,14.5722253 191.744105,14.5991601 C191.336666,14.7540351 190.946204,15.1681573 190.637229,14.4644862 C190.222999,15.3230323 189.944583,14.8045378 189.469237,14.7169997 C189.231565,14.9998149 188.942962,14.7607688 188.562686,15.174891 C188.182409,15.4038367 187.710459,15.4981084 187.102696,15.2253937 C186.827674,15.0099155 186.528886,15.1614236 186.196144,15.3095649 C185.7921,15.4913747 185.340522,15.6731845 184.838014,15.2018258 C184.37625,15.0065486 183.877137,15.0065486 183.323699,15.0772524 C182.770261,15.1412225 182.169289,15.2758964 181.513991,15.3533339 C181.232179,15.4812742 180.974134,15.4442388 180.733066,15.4038367 C180.549718,15.373535 180.376557,15.3432334 180.213581,15.3903693 C179.99628,14.9190106 179.795956,15.020016 179.616004,15.1210215 C179.480191,15.1950921 179.357959,15.2725296 179.242518,15.1142878 C178.692476,14.9122769 178.339362,14.0065949 178.125456,15.0031818 C177.690855,15.7034861 177.806296,15.9122306 178.037178,15.285997 C178.257874,15.2489617 178.58043,15.3567008 178.644941,15.4644399 C178.716243,15.5890133 178.461594,15.7102198 177.364904,15.6226818 C177.01858,15.0806193 176.713001,14.5654916 176.43798,15.2523285 C176.305562,15.1176546 176.179935,15.3028312 176.061099,15.4880078 C175.938867,15.6799182 175.823426,15.8718285 175.71138,15.7135866 C175.001757,16.3667551 174.570551,16.9222849 174.146135,15.7337877 C173.725115,15.8852959 173.30749,15.7034861 172.618239,15.6698176 C172.278707,16.3364534 171.867872,16.5788665 171.355178,15.52841 C170.84588,16.2287143 170.231326,15.7337877 169.484354,15.6226818 C168.944498,15.7135866 168.482733,15.6193149 168.092271,15.5250432 C167.50488,15.3802687 167.070278,15.2388611 166.754513,15.7236872 L166.292749,15.8078584 L166.581351,16.4307252 C166.581351,16.7303746 166.581351,16.9828882 165.905682,16.4643937 L165.263965,16.0570051 C164.99913,17.6124887 164.683365,17.1007278 164.306484,16.6125349 C163.926207,16.8347469 163.484815,16.8381137 162.968725,16.7135404 C162.700495,16.4643937 162.411892,16.5721328 162.102918,16.6832387 C161.81771,16.7842442 161.512131,16.8852496 161.18618,16.700073 C160.513905,16.6899724 160.011397,16.4004235 159.634516,17.2253012 L159.20331,17.3330403 C159.206705,18.003043 159.182938,17.7673637 159.128613,17.4811816 L159.182938,17.3498746 L159.104846,17.3667088 L159.023358,17.1444969 L158.958847,17.1680648 L159.040334,17.3734425 L158.938475,17.1781653 L158.758522,16.9593202 L158.775499,16.8684154 L158.717779,16.8818828 L158.286572,16.1613774 C157.63467,15.9425323 157.278161,15.9964018 157.06086,16.0502714 C156.792629,16.1142415 156.738304,16.1782116 156.622863,15.7304209 C156.561747,15.0402171 156.483655,15.174891 156.341051,15.3095649 C156.245982,15.4004698 156.120355,15.4947415 155.950589,15.3230323 C155.746869,15.2253937 155.475243,14.4442851 155.108548,15.087353 C154.945572,15.2489617 154.762225,14.9425785 154.558505,14.6395623 C154.310647,14.2725759 154.035625,13.9089563 153.723255,14.3533802 C152.959307,13.7944835 152.395683,13.7069455 151.967872,13.8988558 C151.536666,13.7978504 151.241273,13.2658884 151.017181,13.7473476 C150.572394,13.6867444 150.419604,13.8954889 150.06649,14.5755921 C149.971421,15.1580568 149.859376,15.043584 149.726958,14.9291111 C149.611517,14.8314726 149.482494,14.7372008 149.32631,15.0604182 C148.986777,14.8786084 148.538594,15.329766 147.91725,15.3533339 C146.049821,15.0940867 146.049821,14.8988095 146.256936,15.5216763 C146.464051,17.0064561 146.87828,16.9121844 145.842706,15.8920296 C145.428476,16.0873067 145.180618,15.881929 145.021037,15.6731845 C144.779969,15.3634345 144.742621,15.0503177 144.650947,16.124342 L144.151834,16.1209752 C144.016021,16.0233366 143.84286,16.1108747 143.622163,16.2017795 C143.343747,16.3128855 142.987238,16.4239915 142.525473,16.1613774 C141.992407,15.8920296 141.629108,16.0704725 141.371063,16.2455486 C141.096042,16.4374589 140.936461,16.6260023 140.817625,16.2623828 C140.586743,16.3532877 140.495069,16.434092 139.941631,16.0603719 C139.66661,16.0267035 139.276147,15.6731845 138.692152,15.9728339 C138.41713,15.6933856 138.101365,15.7741899 137.731275,15.8516274 C137.32044,15.9391654 136.84849,16.0267035 136.301843,15.6226818 C135.442825,15.484641 134.838458,15.4543394 134.400461,15.4240377 L134.227299,15.6226818 C133.191725,15.2590622 133.191725,15.6092144 133.1374,15.7236872 C133.08647,15.7001192 132.98461,16.2219806 131.738526,16.4408257 C131.538202,16.3162524 131.344668,16.4071572 131.161321,16.4980621 C130.971182,16.5923339 130.794625,16.6866056 130.621464,16.5384643 C130.288722,17.1343963 129.989933,16.6428366 129.711517,16.2152469 C129.572308,15.8044915 129.439891,15.8448937 129.310868,15.8852959 C129.181846,15.925698 129.059614,15.9661002 128.940778,15.5755459 C128.69971,15.9762008 128.465433,15.9155975 128.237946,15.4240377 C128.122505,15.1917253 128.010459,15.2826301 127.895018,15.373535 C127.776182,15.4678068 127.657345,15.5620785 127.535113,15.2927307 C127.294045,15.2354943 127.039396,15.373535 126.760979,14.7607688 C126.336564,14.8516737 126.129449,14.7607688 126.020798,14.666497 C125.918939,14.5823258 125.905357,14.4947878 125.88159,14.5621248 C125.854428,14.5755921 125.817079,15.83816 125.654103,15.1883584 C125.491128,15.1950921 125.209316,15.3701682 124.689831,15.572179 C124.170346,15.087353 123.861372,15.3836356 123.664443,15.440872 C123.470909,16.1849453 123.392817,16.3263529 123.341887,16.0940404 C123.236632,15.9762008 123.236632,16.2623828 122.615287,16.3263529 C122.302918,15.9728339 121.993943,15.9021301 121.528783,16.4307252 C121.294506,16.346554 121.02288,15.285997 120.690138,16.1984127 C120.360792,17.1579643 119.970329,16.2421817 119.50517,16.2017795 C119.399915,16.0704725 119.29466,16.2253475 119.182614,16.3768556 C119.043406,16.5721328 118.897407,16.7640431 118.744617,16.390323 C118.608804,16.1815785 118.469596,16.1984127 118.326992,16.2186138 C118.174202,16.2388149 118.018017,16.2590159 117.851646,16.0098692 C117.607183,15.8179589 117.352534,15.9088638 117.080908,15.9997687 C116.754956,16.1075078 116.408633,16.2152469 116.035148,15.8314263 C115.69222,16.2085132 115.332315,16.5754996 114.952039,15.9559997 C114.571762,17.0199235 114.167719,15.8953964 113.743303,15.6428828 C113.318888,15.5856464 112.870705,15.0132823 112.398754,15.4678068 C111.9302,15.4678068 111.434482,14.976247 110.914997,15.4577062 C110.663743,15.397103 110.409094,15.4509725 110.151049,15.5082089 C109.757192,15.5923801 109.349753,15.6765513 108.928732,15.3533339 C108.663897,15.5654453 108.409248,15.3466002 108.168179,15.1243883 C107.984832,14.9594128 107.81167,14.7910704 107.641904,14.8146383 C107.424603,14.6260949 107.217488,14.6765976 107.02056,14.7237334 C106.864375,14.7641356 106.71498,14.8045378 106.572377,14.7203666 C106.13438,15.397103 105.754103,15.3061981 105.431548,15.2119263 C105.278758,15.1681573 105.136154,15.1243883 105.007132,15.1614236 L104.450299,15.0705187 L104.474066,15.2354943 L104.524996,15.4543394 L104.31109,15.3701682 C104.158301,15.5856464 103.930814,15.6967524 103.601467,15.8246926 C103.275516,15.7135866 102.84431,15.043584 102.294267,15.3533339 C101.876642,14.9695133 101.513342,15.2556954 101.197577,15.4543394 L101.133066,15.4913747 C101.241716,15.8516274 101.241716,16.6495703 101.048183,16.1613774 C100.891998,16.7135404 100.732418,16.5249969 100.562651,16.8482143 C100.392885,16.5283638 100.223119,15.9964018 100.043167,16.2825839 L99.8700051,16.2960513 C99.6968435,16.2893176 99.5644259,16.0469045 99.4727521,15.6462497 L99.3369391,15.3802687 L98.9227094,15.6058475 C98.6952227,15.9997687 98.4643406,15.6193149 98.2300631,15.242228 C98.0602969,14.9695133 97.893926,14.6967987 97.7241597,14.7102661 C97.3133254,14.7877035 96.8990957,14.6159943 96.4848661,14.1446357 C96.2064494,14.0368965 95.9110561,13.252421 95.5817096,13.9998612 C95.2523631,13.9493585 94.8958539,13.9964944 94.5053916,14.4846873 C94.1115339,14.9021764 93.6837229,14.5082552 93.2185634,15.131122 C92.9435421,14.4510188 92.6549394,14.8045378 92.3493602,15.1580568 C92.13885,15.4038367 91.9181539,15.6496165 91.6906671,15.5486111 C91.1406245,16.656304 90.5396519,17.0232904 89.8877495,16.2455486 C89.5617983,15.6529834 89.2256611,15.3567008 88.8725473,15.3499671 C88.5194335,15.3398666 88.1561338,15.6159481 87.7758574,16.1613774 C86.6350282,14.5149889 86.0646135,16.1108747 85.7726156,16.3196192 C85.4806176,15.4812742 85.4670363,16.0772062 85.4432691,16.124342 C85.4161065,16.2758502 85.3787579,16.7303746 85.0358301,16.0536382 C84.9373656,16.4879616 84.8185293,16.2994181 84.6725303,16.1108747 C84.5536939,15.9593665 84.4144856,15.8078584 84.25151,15.9795676 C83.8916055,15.6563502 83.4196553,15.1883584 82.7983109,15.8920296 C82.1769664,16.0873067 81.7084115,16.1007741 81.3586931,15.8145921 C81.0123699,15.9324317 80.7814878,16.656304 80.6320935,15.7775567 L80.4623272,15.7203203 L80.4725132,15.8213258 C80.4759085,16.1681111 80.408002,16.4172578 80.146562,16.1209752 C79.9700051,15.9155975 79.7051698,15.9155975 79.3147074,15.9155975 C79.1245692,15.9155975 78.9038731,15.9155975 78.6492237,15.8920296 C78.0210886,14.7877035 77.5830916,15.1445894 77.284303,15.5014752 C77.0873742,15.7304209 76.9515612,15.9627334 76.8598874,15.794391 C76.7240744,15.5082089 76.6867258,15.6361491 76.6969118,15.7607225 C76.7070978,15.8549942 76.741051,15.9458991 76.7851902,15.881929 C76.9889097,16.2017795 77.4065347,16.1984127 76.1604504,15.8112252 C75.6239891,16.5485648 75.1859922,16.2623828 74.7785531,15.9762008 C74.557857,15.8213258 74.3473469,15.6630839 74.1334414,15.6765513 C73.8346528,15.4004698 73.5358642,15.6092144 73.2065177,15.6967524 C73.0571234,15.8078584 72.9043337,15.6125812 72.7413581,15.417304 C72.5444293,15.1782579 72.3339191,14.9392117 72.1064323,15.2556954 C71.9909913,14.7068992 71.8755502,14.7540351 71.7533185,14.8045378 C71.6514588,14.84494 71.5462037,14.8853421 71.4375533,14.5856927 C71.1964852,14.0806656 70.9418359,14.8483068 70.6600239,14.9863476 C70.3816072,16.0738393 70.0794233,14.7742362 69.7534721,14.6765976 C69.5701246,14.1513694 69.3799864,14.2456411 69.1796622,14.3432797 C69.0234772,14.4173503 68.8605016,14.4947878 68.6941307,14.2759427 C68.3172496,13.8820215 67.9980891,13.4678993 67.7332537,13.4207634 C67.6483706,13.4375977 67.5668828,13.3096575 67.4921856,13.1783504 C67.3360007,12.9123694 67.203583,12.6463885 67.088142,13.6766438 C66.9251664,13.2726221 66.8029347,13.518402 66.7078656,13.7641819 C66.6026105,14.0301628 66.5313087,14.2995106 66.4837741,13.7204129 C66.4056816,13.8954889 66.3853097,13.8820215 66.3717284,13.8685542 C66.3513564,13.8483531 66.3411704,13.828152 66.2087528,14.2961438 C66.0933117,15.6529834 65.8828016,16.2623828 65.4991298,14.8685079 C65.3055963,14.9021764 65.0679236,15.8044915 64.7759256,15.4812742 C64.4805323,15.9762008 64.1342092,15.3937361 63.7199795,15.3533339 C63.3363078,15.881929 63.0137519,15.7842904 62.7387306,15.6900187 C62.5689643,15.6294154 62.4161747,15.5688122 62.283757,15.6630839 C62.0766422,15.2657959 61.9102713,15.440872 61.7812489,15.6193149 C61.6929705,15.7405214 61.6182733,15.8617279 61.5605528,15.7977578 L61.4620884,15.8684616 L61.4960416,15.4812742 L61.2889268,15.0907198 C61.0784167,14.9392117 60.6845589,14.7877035 59.985122,14.7136329 C59.6761474,13.6463422 59.3909401,14.1008666 59.1328954,14.6260949 C58.8748507,14.5957932 58.637178,13.6025732 58.4198772,14.5890595 C57.9818802,14.8045378 57.6117898,14.8584073 57.2654666,14.6328286 C56.9225388,14.8819753 56.5965876,15.6226818 56.2536598,14.7641356 C56.0804982,14.2624753 55.900546,14.53519 55.7104078,14.1076003 C55.5202696,14.4947878 55.3199454,14.690065 55.1026446,14.976247 C54.9057157,15.1546899 54.6952056,15.043584 54.4677188,14.9358448 C54.1859068,14.7978041 53.8769323,14.6631302 53.5340044,15.0705187 C53.4015868,14.9930813 53.2623784,15.0940867 53.1163795,15.1950921 C52.9262413,15.329766 52.7225218,15.4610731 52.5086163,15.1782579 C52.1351305,15.2624291 51.7242962,15.8920296 51.2761133,14.7136329 C50.8279304,15.0368503 50.427282,15.1210215 50.0673776,14.7136329 C49.8500768,14.4476519 49.6497526,14.4510188 49.4596144,14.4543856 C49.340778,14.4577525 49.225337,14.4577525 49.1166866,14.3904155 C49.0080362,14.2119726 48.9061764,14.2321737 48.807712,14.2490079 C48.6549224,14.2793096 48.515714,14.3062443 48.3866917,13.5958395 C48.1761815,13.983027 47.992834,13.9695596 47.8332537,14.2860433 C47.6227436,14.269209 47.4529773,14.3634808 47.313769,14.4577525 C47.0353523,14.6462959 46.8689814,14.8314726 46.6958198,14.1715704 C46.4377751,13.0504102 46.1593585,13.1278477 45.4701075,13.4207634 C45.1237843,14.2187063 44.7536939,13.5689047 44.3734175,12.9898069 C44.1832793,13.5150352 43.9931411,14.7607688 43.7962123,14.0806656 C43.6026787,13.1379482 43.4057499,13.804584 43.2122163,12.8686004 C43.1035659,12.6733233 42.9983109,12.8921684 42.8930558,13.1076466 C42.8047773,13.2928232 42.7131036,13.4779998 42.6248251,13.4140297 C42.4312916,13.3096575 42.2377581,13.5049346 42.0476199,12.855133 C41.8574817,12.4443776 41.6707388,12.9797064 41.4873912,13.4847335 C41.4126941,13.363527 41.3413923,13.4577987 41.2700904,13.5487036 C41.16144,13.6867444 41.056185,13.8247851 40.9543252,13.23222 C40.5502815,13.0133749 40.1767958,13.1244808 39.8576352,13.2355868 C39.6267531,13.3163911 39.4196383,13.3971955 39.249872,13.3567933 C39.0936871,12.6329211 38.9510834,11.663269 38.8152704,12.104326 C38.6828528,11.8046766 38.5572257,11.7676413 38.4383894,13.3130243 C38.319553,13.871921 38.2041119,13.6800107 38.0886709,14.1884047 C38.037741,14.070565 37.9868111,14.137902 37.9358812,14.2086058 C37.8713701,14.292777 37.8102542,14.380315 37.745743,14.1109672 C37.6676506,14.1480025 37.5895581,14.0537308 37.504675,13.9560922 C37.3416994,13.7641819 37.1685378,13.5689047 36.9750043,14.4779536 C36.8290053,15.397103 36.669425,15.5755459 36.4996588,15.2893638 C36.3264972,13.5992063 36.136359,13.8483531 35.9292442,14.5452905 L35.0939942,14.5183557 C34.9649718,14.181671 34.8359495,14.3500134 34.7035318,14.5149889 C34.5473469,14.7136329 34.3877666,14.9122769 34.224791,14.2490079 C33.9260024,14.2086058 33.6136325,13.1884509 33.284286,14.7169997 C32.9583348,14.1278014 32.6120116,13.8113177 32.2419212,14.4846873 C31.8752261,15.1614236 31.4813684,15.0604182 31.0603481,14.5419237 C30.6427231,14.4981547 30.1911449,14.137902 29.7090087,14.5452905 C29.5935677,14.1008666 29.4849172,14.2422742 29.3728715,14.3836818 C29.2438492,14.5486574 29.1148268,14.7136329 28.9891998,13.9729264 C28.7549224,13.5992063 28.5206449,13.9863938 28.2863675,14.2860433 C28.1132059,14.2018721 27.946835,14.22544 27.7770688,14.2490079 C27.4816755,14.2860433 27.1896775,14.3264454 26.8976796,13.7978504 C26.6090769,12.9258368 26.3238696,13.0840787 26.035267,13.2456873 C25.8587101,13.3399591 25.6855485,13.4375977 25.5089916,13.3029238 C25.0404368,12.7170923 24.5684866,12.9292037 24.0863505,12.6901575 C23.600819,13.1985515 23.1051015,12.3602064 22.5924074,12.2827689 C22.2970142,13.0840787 21.9948302,12.7507608 21.6858557,12.4174428 C21.4617642,12.171663 21.2308821,11.9292499 21,12.1245271 C21,12.5487499 21,12.6362879 21,12.9325705 C21,12.7945298 21,13.4645324 21,14.0166954 C21,14.9661465 21,15.0166492 21,15.0671519 C21,15.9021301 21,15.8852959 21,16.4711273 C21,16.8482143 21,17.7437957 21,18.0838473 L21,18.0973147 C21,18.1074153 21,18.2589234 21,19.6292304 C21,20.8446624 21,20.9389341 21,21.5449667 L21,21.649339 C21,22.2048688 21,22.7570318 21,23.3024611 C21,27.3595125 21,30.9687731 21,30.9687731 C21,31.5950068 21,32.2212404 21,32.8474741 C21,34.1672783 21,38.0862889 21,38.0862889 C21.4413923,38.6754873 21.9880396,38.4835769 24.018444,38.0256857 L25.4105272,38.0728215 C25.4376898,38.0088514 27.1557243,38.3085009 27.5529773,38.8505633 C27.9943696,38.2041286 28.8194335,38.571115 29.2845931,38.7158894 C29.3660809,38.7091557 29.4441733,38.7832264 29.5256611,38.857297 C29.7157994,39.03574 29.9127282,39.210816 30.1334243,38.2916666 C30.4423989,38.4128731 30.7479782,38.0559873 31.0433714,37.8337754 C31.1078826,37.5610607 31.3964852,37.8337754 31.8175055,38.1031232 C32.2894557,38.4095063 32.9311722,38.7125226 33.6170278,38.2512645 C33.8037707,38.1233243 34.1433032,38.2377971 34.5235796,38.348903 C35.2060399,38.5509139 36.0175226,38.7529248 36.3061252,37.5745281 C36.5302167,37.4028189 36.8459819,37.641865 37.1821191,37.8775444 C37.5182563,38.1132237 37.8781607,38.348903 38.1973213,38.1872944 C38.3263436,38.1165906 38.455366,38.1300579 38.5945743,38.1435253 C38.8016891,38.1670933 39.0155946,38.1872944 39.2430814,37.9112129 C39.6199625,37.864077 40.0240061,37.7327699 40.4552124,37.4196531 C40.8864187,38.0492536 41.3481829,37.3758841 41.840505,36.759751 C42.0815731,37.1402048 42.3328272,36.9651287 42.5942672,36.7934195 C42.8557072,36.6183434 43.1239379,36.4432673 43.4057499,36.8439222 C43.4057499,35.7934657 43.7215151,35.8237673 44.2783484,36.891058 C44.4141614,36.3119602 44.566951,36.0358787 44.733322,36.2816586 C44.8996929,35.8911043 45.0796451,37.002164 45.2697833,37.0358325 C45.6500597,37.7731721 46.081266,37.5610607 46.5498208,36.9853298 C46.8587954,37.7597047 47.188142,37.709202 47.5310698,36.8809575 C47.8706023,36.7765852 48.2237161,36.0897483 48.5904112,37.0324656 C48.8925951,37.598096 49.204965,37.3523162 49.5241256,37.1031694 C49.8127282,36.8775906 50.1081215,36.648645 50.4035148,37.0425662 C50.7158847,37.0728678 51.0282546,37.2614113 51.3474151,37.3523162 C51.659785,37.4398542 51.9789456,37.4364873 52.2947108,37.069501 C53.0586589,36.1941206 54.8921344,36.8102537 55.774919,37.2816124 C55.9277086,36.9516613 56.0804982,36.6217102 56.2298925,36.2984929 C56.7765398,38.0391531 57.1262583,35.0695935 58.2840642,34.1134088 C58.365552,34.4467267 58.4470398,34.7766777 58.5319229,35.1099957 C58.9020133,33.9147648 60.4468862,34.3019522 60.508002,35.6082891 C60.820372,33.9518001 61.6827845,33.9585338 62.4840812,33.9652675 C63.0884491,33.9686343 63.6588637,33.975368 63.9406757,33.2750637 C64.2836035,34.4197919 64.6197407,34.0831071 64.9422965,32.6387295 C65.0237843,31.9754605 65.1086675,32.1707377 65.1901553,32.3660149 C65.2648524,32.5444578 65.3395496,32.7229007 65.4142467,32.2246073 C65.5704317,31.8811888 65.719826,30.0260558 65.8692203,33.1942594 C66.0288005,32.6151616 66.1849855,32.9754143 66.3343798,33.3323001 C66.4701928,33.6487838 66.5992152,33.9619006 66.7248422,33.6521506 C66.9998635,34.7329087 67.2579082,33.1269224 67.5023716,32.9653137 C67.600836,32.6925991 67.6993005,32.8407404 67.7943696,32.9888817 C67.9335779,33.2077268 68.0693909,33.4265719 68.1984132,32.2650094 C68.2663197,32.2885774 68.3342262,32.207773 68.3987374,32.1236018 C68.5447364,31.9384252 68.6805494,31.7566154 68.8129671,32.7498355 C69.1932435,33.6689849 70.4121652,33.6588843 70.6736052,34.4231587 C70.8365808,32.6387295 71.1455554,33.6858191 71.3866234,34.7362756 C71.5326224,35.3726098 71.6548541,36.0123108 71.705784,36.0123108 L71.4715066,34.4770283 C71.4715066,33.820493 71.5937383,34.4938625 71.71597,35.1672321 C71.8110391,35.6823597 71.9027128,36.2008543 71.9400614,36.1133162 L71.8348063,34.5746669 C71.9264801,34.638637 72.0419212,35.7833652 72.1811295,35.3389413 C72.2524313,35.0594929 72.3305238,33.9450664 72.4154069,34.372656 C72.4663368,34.7598435 72.520662,34.726175 72.5749872,34.6958734 C72.6157311,34.6723055 72.656475,34.6521044 72.6972189,34.7733109 C72.7990787,34.1908463 72.9111244,33.3760691 73.0299608,33.8743626 C73.1521925,33.7598898 73.2812148,33.864262 73.4204231,34.328887 C73.6954445,34.7564767 74.014605,36.5240716 74.3779048,35.2817049 C74.8600409,35.3995445 75.1825968,35.8776369 75.4134789,35.4837157 C75.4915714,35.4971831 75.5594779,35.4534141 75.6171984,35.4130119 C75.7360348,35.3322076 75.8209179,35.2480364 75.8990104,35.5712538 C76.1264972,35.6722592 76.2657055,35.5645201 76.866678,34.9046179 C77.0160723,34.1201425 77.1926292,34.396224 77.4065347,34.6689386 C77.6238355,34.948387 77.8784849,35.2244685 78.1772735,34.4130582 C78.778246,34.0662729 79.5625661,34.4534604 80.5981402,35.0123571 C81.0123699,35.0662266 81.3654837,35.0998951 81.6744583,35.1066288 L81.8442245,35.0931614 L81.9698516,35.079694 L81.9630609,35.0897946 L82.6760792,34.9416533 L83.0869135,35.0089902 C83.3347722,34.4534604 83.6063982,34.6756723 83.9289541,34.8978843 C84.2073708,35.0897946 84.5197407,35.2817049 84.8830404,34.9719549 C85.2768981,34.9079848 85.725081,33.3188327 86.2479611,35.1503978 C86.4652619,35.3052728 86.696144,35.2514033 86.9440027,35.1941668 C87.2869306,35.1167293 87.6604163,35.0426587 88.06446,35.5510527 C88.3225047,35.9584412 88.5499915,35.6655255 88.7503156,35.3759766 C88.9472445,35.0864277 89.1170107,34.7968788 89.2664051,35.1975337 C89.558403,35.699194 89.7553319,36.1873869 89.8911449,35.8372347 L90.2408633,36.0224114 C90.2917932,36.4297999 90.3698857,35.7193951 90.7467668,35.6958271 C90.9335096,36.2176885 91.198345,37.1873406 91.5684354,36.1537184 C91.9385258,36.2681912 92.4172667,36.5072374 93.0420065,36.0897483 C94.2846954,37.1604058 94.9094352,36.9819629 95.2014332,36.0594467 L95.2795257,35.8641695 L95.3168743,35.4702483 C95.3949667,35.0628598 95.5579423,35.4466804 95.8635216,35.8271342 C96.087613,36.1065825 96.3830063,36.382664 96.7734687,36.3590961 C97.7071831,36.0257782 98.1757379,35.5577864 98.3692715,35.7092945 C98.562805,35.7833652 98.4847125,36.4904032 98.3285276,35.897838 C98.1961099,36.1806532 98.0059717,36.1368842 97.88374,36.0931152 C97.7139737,36.0325119 97.6630438,35.9719086 98.019553,36.7092483 C98.2232725,36.8708569 98.4303873,36.847289 98.6476881,36.8237211 C98.8683842,36.8001531 99.0992663,36.7765852 99.3539157,36.9449276 C99.8632145,35.9988434 100.460792,35.6217565 101.245112,35.5510527 C101.438645,35.4668815 101.672923,36.1873869 101.917386,36.9078923 C102.165245,37.6283977 102.426685,38.3522699 102.674544,38.2647319 C103.166866,38.1300579 103.720304,38.2074954 104.341648,38.4903106 C104.966388,38.2714655 105.380618,38.0761884 105.66922,37.0627673 C105.957823,37.3455825 106.117403,37.4566884 106.232844,36.8708569 C106.463726,36.9112591 106.511261,37.9549819 107.017164,36.7563841 C107.268418,36.2479901 107.638509,36.3759303 108.202133,36.2850255 C108.925337,37.1065363 109.546681,36.6621124 110.185003,36.2176885 C110.609418,35.9180391 111.04402,35.6217565 111.519365,35.7025608 C112.015083,35.7833652 113.899488,36.9617618 113.997953,36.9516613 C117.359324,36.5644738 120.510186,33.534311 124.044719,35.1133625 C124.319741,35.3288407 124.62532,35.1806995 124.958062,35.0325582 C125.362105,34.8507484 125.813684,34.6689386 126.319587,35.1436641 C126.777956,35.3322076 127.280464,35.3322076 127.830507,35.2682375 C128.38734,35.1975337 128.988313,35.0628598 129.64361,34.9887891 C129.922027,34.8574821 130.180072,34.8978843 130.42114,34.9382864 C130.604487,34.9685881 130.781044,34.9988897 130.94402,34.9517538 C131.157925,35.4231125 131.358249,35.3221071 131.538202,35.2211016 C131.674015,35.1436641 131.799642,35.0695935 131.915083,35.2278353 C132.46173,35.4298462 132.818239,36.3355282 133.032145,35.3389413 C133.466746,34.638637 133.351305,34.4298924 133.117028,35.0561261 C133.147586,34.9786886 132.930285,34.9820554 132.746937,34.9854223 C132.465125,34.992156 132.271592,34.9955228 133.256236,34.6857729 C134.186555,34.3928571 136.043798,34.2581832 137.10993,34.328887 C139.765074,34.5005962 139.734516,35.3254739 142.386265,35.50055 C142.063709,35.2648706 141.938082,34.6150691 142.12822,34.174012 C142.410032,34.9147185 143.323375,34.8440147 143.544071,34.062906 C144.11109,34.1639115 145.234943,34.1066751 146.368981,34.0494387 C147.947808,33.9720012 149.540215,33.8945637 149.665842,34.241349 L149.516448,33.820493 C149.64547,33.7834577 149.828818,34.3389876 150.097048,34.6925065 L150.093653,34.8002457 L150.171745,34.8036125 L150.188722,34.8271805 C150.857601,35.0527592 150.847415,34.8945174 150.664068,34.7396424 C150.538441,34.6352701 150.334721,34.5308979 150.205699,34.5409984 C150.314349,33.5848137 150.477325,31.3660611 150.765927,31.6623437 C150.973042,31.7599823 151.244668,32.5377241 151.611363,31.898023 C151.3669,32.3323464 158.323921,32.5006888 159.199915,31.6354089 C159.736376,33.6858191 162.741239,33.8171262 163.06719,33.6521506 C163.396536,33.4838083 163.753046,33.6689849 164.075601,33.8541615 C164.384576,34.0326044 165.790241,34.0056696 167.148371,33.9821017 C168.533663,33.9551669 169.868026,33.931599 169.932537,34.1201425 C170.177001,34.0561724 170.265279,33.9720012 170.818717,34.3490881 C171.097134,34.3793897 171.487596,34.7362756 172.068197,34.4366261 C172.343218,34.7127076 172.662378,34.6352701 173.029074,34.5544658 C173.439908,34.4669278 173.915253,34.3793897 174.458505,34.7834114 C175.320918,34.9214522 175.925286,34.9517538 176.366678,34.9820554 L176.536444,34.7834114 C177.568623,35.1503978 177.568623,34.7968788 177.622948,34.682406 C177.677274,34.7059739 177.779133,34.1874794 179.021822,33.9652675 C179.225542,34.0898408 179.41568,33.9989359 179.599027,33.9080311 C179.789166,33.8171262 179.969118,33.7194876 180.138884,33.8709957 C180.475021,33.2716969 180.77381,33.7666235 181.052227,34.1942131 C181.327248,35.0056234 182.410357,36.2580907 182.651425,37.0425662 C182.895888,36.6385445 183.123375,36.7058814 183.354257,37.1907075 C183.469698,37.4297536 184.019741,36.6722129 184.573179,35.9180391 C185.133407,35.1537647 185.697031,34.3861234 185.819263,34.6521044 C186.060331,34.7093408 186.318376,34.5713 186.593397,35.1874331 C187.017813,35.0931614 187.224927,35.1840663 187.333578,35.278338 C187.435438,35.3658761 187.449019,35.4534141 187.472786,35.3860772 C187.499949,35.3692429 187.537297,34.1066751 187.700273,34.7598435 C187.863249,34.7531098 188.148456,34.5746669 188.667941,34.3692892 C189.18403,34.8608489 189.4964,34.5611995 189.689933,34.5039631 C189.883467,33.7632566 189.961559,33.621849 190.012489,33.8541615 C190.117744,33.9686343 190.117744,33.6824523 190.739089,33.621849 C191.051459,33.9720012 191.363829,34.042705 191.828988,33.5141099 C192.00894,33.5814468 191.1669,35.8035663 190.925832,36.3994983 C191.340061,35.4466804 197.339601,34.527531 197.801365,34.5645663 C197.90662,34.6958734 198.011875,34.5409984 198.123921,34.3894903 C198.263129,34.19758 198.409128,34.0056696 198.561918,34.3760229 C198.694335,34.5881343 198.833544,34.5679332 198.979543,34.5477321 C199.128937,34.527531 199.288517,34.5073299 199.454888,34.7598435 C199.695956,34.9517538 199.950606,34.8608489 200.222232,34.769944 C200.551578,34.6622049 200.897901,34.5544658 201.271387,34.9382864 C201.61092,34.5611995 201.970824,34.1942131 202.3511,34.8137131 C203.356117,36.4533678 205.043593,33.5040093 206.815953,33.490542 L207.369391,33.5814468 L207.345624,33.4164713 L207.291298,33.1976262 L207.508599,33.2817974 C207.661389,33.0663192 207.888876,32.9518463 208.218222,32.827273 C208.544173,32.938379 208.971984,33.6083816 209.528818,33.2986316 C209.943047,33.6824523 210.306347,33.3962702 210.622112,33.1976262 L210.686623,33.157224 C210.574578,32.8003382 210.574578,31.9990285 210.771507,32.4905882 C210.927692,31.9384252 211.087272,32.1269687 211.257038,31.8037513 C211.423409,32.1236018 211.599966,32.6555638 211.776523,32.3693817 L211.946289,32.3559143 C212.122846,32.362648 212.255264,32.6016942 212.346937,33.0057159 L212.506518,33.3693354 C213.582836,34.5207973 217.59611,34.8541152 218.594335,33.5208436 C219.028937,34.5847674 219.494097,33.137023 220,33.0966208 L220,11.5050271" id="Fill-1865" fill="#EFF2F3"></path>
                <g id="Group" transform="translate(0.000000, 25.000000)">
                    <polyline id="Fill-54" fill="#BEC2F2" points="117.901257 0.155 121 38.6566228 3.09710473 50.155 0 11.6533772 117.901257 0.155"></polyline>
                    <polyline id="Fill-60" fill="#A6ABEC" points="3.02923508 50.155 0 11.2675572 8.40688827 10.4207131 12.4901882 10.0091287 20.969163 9.155 24 48.0424428 3.02923508 50.155"></polyline>
                </g>
                <g id="Group-2" transform="translate(165.000000, 0.000000)">
                    <polygon id="Fill-87" fill="#F7F0B0" points="0 137 38 137 38 0 0 0"></polygon>
                    <polygon id="Fill-88" fill="#F3E994" points="0 25 38 25 38 0 0 0"></polygon>
                </g>
            </g>
        </g>
    </g>
</svg>