<?xml version="1.0" encoding="UTF-8"?>
<svg width="640px" height="436px" viewBox="0 0 640 436" version="1.1" xmlns="http://www.w3.org/2000/svg" xmlns:xlink="http://www.w3.org/1999/xlink">
    <!-- Generator: Sketch 55.2 (78181) - https://sketchapp.com -->
    <title>Group</title>
    <desc>Created with Sketch.</desc>
    <defs>
        <polyline id="path-1" points="3 6.085 20 4.225 3 6.085"></polyline>
        <radialGradient cx="3889.25305%" cy="12609.95%" fx="3889.25305%" fy="12609.95%" r="22189.6484%" gradientTransform="translate(38.892530,126.099500),scale(0.235294,1.000000),translate(-38.892530,-126.099500)" id="radialGradient-3">
            <stop stop-color="#737384" offset="0%"></stop>
            <stop stop-color="#5B5B6B" offset="100%"></stop>
        </radialGradient>
    </defs>
    <g id="Page-1" stroke="none" stroke-width="1" fill="none" fill-rule="evenodd">
        <g id="Artboard" transform="translate(-23.000000, -86.000000)">
            <g id="Group" transform="translate(20.000000, 86.845000)">
                <polyline id="Fill-4" fill="#EFF2F3" points="643 427 33.1103262 421.756984 29 16 353.308744 20.9389208 634.969517 20.1384871 643 427"></polyline>
                <path d="M33,409.071971 C33.5238028,408.869066 34.0409329,409.132843 34.5513903,409.396619 C35.2553545,409.758466 35.9393008,410.116931 36.6032291,409.271494 C37.757597,409.362801 38.8852742,410.265728 39.9695793,409.731412 C41.0638933,409.995188 42.1281804,409.778756 43.1891312,410.411143 C43.5861537,410.556558 43.9798399,410.455106 44.373526,410.357035 C45.0207727,410.19133 45.6680194,410.029006 46.3252751,410.958986 C46.9925398,411.52712 47.6531318,411.48992 48.3170601,411.452721 C48.6974009,411.432431 49.0777418,411.41214 49.461419,411.503447 C49.9852217,411.188945 50.5090245,410.786517 51.0495088,411.185563 C51.3464416,411.97351 51.6333654,411.801041 51.9202892,411.631954 C52.1671771,411.483157 52.4174014,411.33436 52.6776346,411.807805 C53.7619397,411.381705 54.7828546,411.773987 55.7303704,411.828095 C56.6845588,412.386083 57.5720208,412.501063 58.3927563,411.790896 C59.2168282,411.080729 60.0008642,411.422285 60.7482006,412.058054 C61.4721827,410.438197 62.1861559,411.52712 62.8634295,411.574464 C63.2404341,412.284631 63.5974206,412.074963 63.9510709,411.865294 C64.2446674,411.692825 64.5349275,411.516974 64.8285239,411.878821 C65.1888468,411.807805 65.5491697,411.845004 65.9061563,411.882203 C66.1763985,411.912639 66.4433044,411.939693 66.7135466,411.922784 C67.1739592,411.185563 67.5909996,410.925169 68.0047037,412.724258 C68.3950535,413.031997 68.7487038,412.842619 69.0656545,411.872058 C69.4960402,410.90826 69.8897263,411.117928 70.2633945,411.327597 C70.4468923,411.429049 70.6270538,411.533883 70.8005426,411.493302 C70.9506771,411.780751 71.0908027,411.689443 71.2342646,411.601518 C71.3476996,411.530501 71.4611346,411.456103 71.5779059,411.584609 C71.8314665,411.046912 72.0916997,411.253198 72.3552692,410.661392 C72.6054934,409.021245 72.8890809,409.065208 73.1926863,409.386474 C73.4896191,408.919793 73.8232514,409.954607 74.1835744,410.722264 C74.5739242,410.769608 75.0343368,410.688446 75.5514669,410.607284 C76.2787854,410.492305 77.1162025,410.380707 78.0303551,410.620811 C78.2705703,411.249816 78.5107856,411.107783 78.7510009,410.962368 C78.9111444,410.867679 79.0746243,410.77299 79.2381041,410.901496 C79.6451355,410.36718 80.0621759,409.799047 80.495898,410.242056 C80.9329563,410.938696 81.3666783,410.729027 81.807073,410.847388 C82.0072524,410.915023 82.2040955,410.722264 82.4042749,410.526122 C82.6411538,410.296164 82.8780328,410.066205 83.1215844,410.275873 C83.5753243,411.27687 84.0090464,410.570085 84.45945,411.574464 C84.9065173,412.304921 85.326894,410.982658 85.7472708,410.428052 C86.6147148,411.050293 87.4554683,411.746933 88.226159,410.904878 C89.7808856,410.607284 90.4014417,410.532886 91.0086526,411.730024 C91.405675,412.430046 91.7793432,412.237287 92.3932267,412.044527 C92.7101774,411.946456 93.0938546,411.848386 93.5742852,411.868676 C93.9245991,411.533883 94.3349669,411.554174 94.8087248,411.148364 C95.1089939,411.905875 95.4226082,411.878821 95.7695859,411.848386 C95.9897832,411.831477 96.2233258,411.814568 96.4702137,412.003946 C96.7171017,412.081726 96.9773349,412.078344 97.2509134,412.078344 C97.6712901,412.078344 98.1283664,412.078344 98.6221422,412.365793 C99.4328688,412.80542 100.337012,412.720876 101.347918,412.389465 C102.375506,413.650857 103.289658,412.984653 104.133748,412.906872 C104.620851,413.21123 105.074591,413.072578 105.508313,412.933926 C105.835273,412.829092 106.145551,412.724258 106.449157,412.808802 C107.216511,412.382702 107.913803,412.531499 108.547704,412.683677 C109.064834,412.80542 109.541928,412.927163 109.982323,412.737785 C110.472762,412.43681 110.926502,412.233905 111.350215,411.828095 C111.783938,412.284631 112.184296,411.997182 112.581319,412.53488 C113.372027,413.454715 114.089337,412.673532 114.8667,412.413137 C115.650736,412.660005 116.481481,412.609279 117.469032,412.392847 C117.949463,411.344505 118.493284,412.402992 119.080476,412.443573 C119.65766,411.888967 120.288226,411.41214 121.005535,412.551789 C122.586952,412.643096 123.477751,412.808802 123.954845,412.974507 C124.431939,413.140213 124.498665,413.305919 124.42193,413.393844 C124.29515,414.804033 123.591186,413.924778 124.575401,413.732019 C124.708854,413.799654 124.872334,413.674529 125.072513,413.546023 C125.362773,413.360027 125.733105,413.17403 126.203527,413.600131 C126.503796,413.50206 126.847437,413.569695 127.234451,413.63733 C127.855007,413.745546 128.585661,413.85038 129.443097,413.299155 C130.377267,413.349881 131.174648,413.978886 131.828568,413.454715 C132.495832,413.803035 133.019635,412.849383 133.453357,412.822329 C134.344155,414.303534 134.804568,413.664384 135.044783,412.22376 C135.33838,411.730024 135.361734,411.750315 135.408443,411.770605 C135.441806,411.784132 135.488514,411.801041 135.662003,411.615045 C135.778774,412.230523 135.932245,411.949838 136.165788,411.665771 C136.375976,411.408758 136.652891,411.151746 137.026559,411.581228 C137.270111,410.488923 137.577053,410.77299 137.930703,411.060439 C138.104192,411.19909 138.28769,411.341124 138.481196,411.320833 C139.078398,411.378323 139.80238,411.824713 140.663152,412.250814 C141.043493,412.484154 141.403815,412.406374 141.757466,412.328594 C142.204533,412.230523 142.634919,412.129071 143.058632,412.690441 C143.795959,412.80542 144.493251,414.188555 145.107134,413.038761 C145.737699,412.896727 146.308211,412.085108 146.858704,412.629569 C147.108928,412.950835 147.345807,412.910254 147.572677,412.866291 C147.849592,412.818947 148.113162,412.768221 148.376731,413.353263 C148.887189,413.01847 149.364283,413.275483 149.814686,413.532496 C150.185018,413.745546 150.535332,413.955214 150.868965,413.840235 C151.609628,413.755691 152.283566,413.539259 152.960839,413.836853 C153.44127,413.830089 153.925037,413.999177 154.428821,414.171646 C155.34631,414.482767 156.343871,414.793887 157.541611,414.016085 C160.357468,414.452331 159.423297,414.448949 158.949539,414.104011 C158.852786,414.171646 158.772714,414.073575 158.752696,413.978886 C158.726006,413.840235 158.81275,413.704965 159.123028,414.012704 C159.333217,414.195318 159.633486,413.951832 160.067208,413.711728 C160.741145,413.336354 161.72536,412.96098 163.166652,414.151355 C164.921558,414.242663 165.952482,414.090484 166.546348,414.425277 C167.143549,414.739779 167.290348,414.479385 167.280339,414.107393 C167.263657,413.529114 167.00676,413.711728 167.080159,413.894343 C167.123531,413.999177 167.273666,414.104011 167.640662,414.066812 C167.990976,415.000174 168.501433,414.239281 169.285469,414.117538 C170.076178,414.428659 171.130456,414.425277 172.531711,414.225754 C173.926295,413.491915 175.000591,413.999177 175.821326,414.350878 C176.181649,414.168264 176.495264,414.33397 176.765506,414.496294 C177.102474,414.699198 177.376053,414.902103 177.582905,414.442186 C178.370277,415.165879 178.450349,414.685671 178.507066,414.526729 C178.563784,414.476003 178.587138,413.840235 179.257739,414.739779 C179.911659,414.519966 181.176125,412.835856 183.775121,414.607891 C184.62922,414.036376 185.449955,413.748927 186.244,413.765836 C187.041381,413.782745 187.808736,414.097247 188.552736,414.733016 C190.034063,415.575071 191.385274,415.196315 192.616378,414.029612 C193.130171,414.14121 193.620611,413.884197 194.097705,413.627185 C194.778315,413.258574 195.425562,412.886582 196.056127,413.617039 C197.103732,412.96098 198.071266,413.390462 198.952055,412.954217 C199.826172,412.440191 200.633562,412.396229 201.377562,412.4571 C202.108217,411.669153 202.7955,412.507826 203.422729,412.622806 C204.366908,413.140213 205.304415,413.326209 206.22524,413.248429 C206.608917,413.238284 206.995931,413.532496 207.379608,413.823326 C207.91342,414.232517 208.443895,414.641709 208.951016,414.225754 C209.381402,413.796272 209.815124,413.972123 210.238837,414.08372 C210.669223,414.418513 211.096272,415.368784 211.493295,414.966356 C211.890317,414.665381 212.290676,415.233514 212.674353,415.578453 C213.048021,415.233514 213.418353,415.439801 213.761994,414.854759 C214.095627,415.247041 214.175698,414.871667 214.085618,414.496294 C213.985528,414.073575 213.668577,413.647475 213.268219,414.327206 C212.911232,414.151355 212.47751,414.205463 212.040452,414.259571 C211.526658,414.327206 211.002855,414.391459 210.585815,414.080339 C209.81846,413.515587 209.441456,413.742164 210.195465,414.279862 C210.579142,415.057664 211.239734,415.372166 212.253976,414.401605 C212.771106,414.421895 213.378317,414.384696 214.088954,414.107393 C214.799591,413.901106 215.61699,413.603512 216.557833,414.022849 C217.802282,413.701583 218.783161,414.421895 219.527161,414.543638 C220.267825,414.418513 220.781618,414.303534 221.118587,414.076957 C221.382157,414.002558 221.5423,414.080339 221.622372,414.161501 C221.749152,414.283244 221.672417,414.404986 221.485583,413.934924 C221.295412,413.021852 221.021834,413.319446 220.738246,413.617039 C220.551412,413.813181 220.361242,414.009322 220.187753,413.853762 C219.984237,414.056666 219.807412,413.924778 219.713995,413.79289 C219.610569,413.654239 219.60056,413.512205 219.747358,413.79289 C220.0176,413.224757 220.868363,413.860525 222.693332,413.867289 C222.986928,413.830089 223.307215,413.880816 223.650857,413.931542 C224.384848,414.036376 225.238946,414.14121 226.219825,413.427661 C226.546785,413.518969 226.883754,413.478388 227.237404,413.441188 C227.677799,413.393844 228.144884,413.3465 228.63866,413.549404 C229.022337,413.525732 229.422696,413.708346 229.839736,413.890961 C230.386893,414.127683 230.957404,414.364405 231.554606,414.144592 C232.512131,414.496294 233.42962,414.41175 234.320418,414.330588 C234.907611,414.27648 235.481459,414.222372 236.041961,414.293389 C237.209674,413.789508 238.337352,414.323824 239.404975,414.330588 C240.462589,413.857143 241.480168,414.476003 242.441029,414.540256 C243.405227,414.820941 244.332724,416.021461 245.176814,414.89534 C246.047595,415.564926 246.858321,415.179406 247.619003,414.783742 C248.466429,415.203079 249.253801,415.091481 249.991129,414.983265 C250.601676,414.891958 251.182196,414.800651 251.732689,415.010319 C252.106358,415.277477 252.463344,415.260568 252.806985,415.240278 C253.133945,415.223369 253.44756,415.20646 253.754501,415.433038 C254.104815,415.832084 254.431775,415.629179 254.745389,415.426274 C254.995614,415.267332 255.235829,415.105008 255.469371,415.247041 C256.52365,415.294386 257.421121,416.278474 258.151775,415.26395 C258.88243,414.300152 259.512995,415.429656 260.043471,415.524345 C261.091076,414.97312 261.79504,415.054282 262.502341,415.433038 C263.906933,415.37893 263.903597,415.074572 264.140476,415.199697 C264.260583,415.446564 264.434072,415.297768 264.861121,414.513202 C265.301516,414.455713 265.998808,414.147974 267.179866,414.675526 C268.347579,414.46924 268.988153,414.286625 269.355149,414.283244 C269.732153,414.976502 269.79888,413.63733 269.855597,413.617039 C269.912315,413.546023 269.945678,413.644093 270.179221,413.738782 C270.426109,413.836853 270.89653,413.938305 271.854055,413.85038 C272.487956,414.506439 273.058468,414.364405 273.608961,414.428659 C273.889212,414.716107 274.159454,414.618036 274.42636,414.519966 C274.683257,414.425277 274.936818,414.330588 275.197051,414.584219 C275.727526,415.10839 276.247993,415.179406 276.788477,414.756688 C277.065392,415.172643 277.345643,415.132062 277.629231,415.091481 C277.922827,415.0509 278.223096,415.010319 278.543383,415.449946 C279.177285,415.909864 279.864567,416.437416 280.608567,415.808411 C280.995581,415.970735 281.399276,415.872665 281.826325,415.777976 C282.236693,415.686669 282.670415,415.59198 283.130828,415.72725 C285.943348,415.517581 286.166882,414.966356 286.283653,414.99341 C286.400424,414.871667 286.393752,414.499675 288.74586,414.905485 C290.07038,414.158119 289.886882,414.377932 289.26299,414.597746 C288.795905,414.763452 288.078595,414.929157 287.571474,414.678908 C287.351277,414.685671 287.174451,414.611273 287.074362,414.536875 C286.904209,414.41175 286.95759,414.283244 287.421339,414.550402 C288.15533,414.746543 289.913573,414.648472 293.433394,414.942684 C294.677842,415.385693 295.748802,415.301149 296.6763,415.213224 C297.503708,415.138826 298.221018,415.061045 298.84491,415.358639 C300.156085,415.0509 301.046884,415.436419 301.674112,415.477 C302.931906,415.886192 303.138758,415.798266 303.655888,415.706959 C303.932803,416.09586 304.283117,415.899719 304.900337,415.703577 C305.480857,415.517581 306.298256,415.334967 307.509342,415.632561 C308.566956,415.923391 309.374346,415.808411 310.004912,415.693432 C310.498687,415.605507 310.882365,415.514199 311.189306,415.622415 C311.876589,415.632561 312.140158,415.69005 312.316984,415.635942 C312.51049,414.48953 312.600571,414.827705 313.154401,415.165879 C313.51806,415.385693 314.081899,415.608888 315.009396,415.409365 C317.371513,416.511815 316.434006,416.606504 315.940231,415.020464 C315.4598,414.357642 315.463136,414.563929 319.690258,414.875049 C321.09485,414.858141 322.105756,414.391459 322.87311,414.590982 C323.216752,414.249426 323.513684,414.35426 323.773918,414.455713 C324.080859,414.580837 324.33442,414.70258 324.541272,414.08372 C325.328644,413.370172 325.672286,413.15374 326.679855,413.228138 C327.176967,412.717495 327.854241,413.28901 328.828447,413.403989 C329.795981,413.207848 331.077129,413.312682 332.805345,413.921397 C333.502636,413.451334 334.133201,413.846998 334.69704,414.239281 C335.164125,414.56731 335.584502,414.891958 335.954834,414.726252 C336.76556,414.053285 337.392789,414.881813 337.863211,414.99341 C338.246888,415.176025 338.530475,415.081336 338.750673,414.986647 C339.067623,414.844614 339.244449,414.705962 339.397919,415.439801 C339.661489,415.916627 339.77826,415.848992 340.372126,415.784739 C340.859229,415.734013 341.673292,415.679905 343.157956,415.926773 C343.985364,416.315673 344.529185,417.364015 344.842799,416.985259 C345.163086,417.134056 345.293203,418.395448 345.256503,417.049513 C345.239821,417.850987 344.699337,417.012313 344.339014,416.545632 C344.145507,417.16111 343.998709,416.995405 344.042081,416.829699 C344.068772,416.711338 344.202225,416.589595 344.489149,416.775591 C344.70601,417.424887 344.989597,417.286235 345.369938,417.147583 C345.61349,417.056276 345.897077,416.968351 346.230709,417.08333 C347.061454,416.210839 348.209149,416.532105 349.733849,416.555778 C350.471176,416.755301 351.161795,416.653848 351.809042,416.552396 C352.502997,416.44418 353.150244,416.335964 353.760791,416.603122 C354.928504,416.745155 355.929401,416.751919 356.7835,416.518578 C357.650944,417.046131 358.374926,417.597356 358.942101,415.947063 C359.285742,415.777976 359.59602,415.957208 359.869599,416.136441 C360.066442,416.264947 360.243267,416.393454 360.403411,416.393454 C361.938119,416.958205 361.934783,416.691047 361.92811,416.369781 C361.92811,416.400217 361.724595,416.149968 361.477707,415.896337 C361.067339,415.483764 360.543536,415.067809 360.630281,415.926773 C360.683662,415.571689 361.127393,415.798266 362.308451,415.622415 C363.015752,415.10839 364.003304,415.274095 365.341169,415.436419 C366.228631,415.544635 367.269564,415.652851 368.480649,415.564926 C370.178838,415.696814 371.573421,416.234512 372.71778,415.497291 C373.895502,416.623412 374.816327,416.376545 375.580345,415.66976 C377.131736,415.723868 378.079251,415.923391 379.03344,415.771212 C380.014319,417.042749 380.978516,416.461089 382.583288,415.781357 C382.830176,415.947063 383.087073,415.74754 383.360651,415.544635 C383.627557,415.348494 383.911144,415.152353 384.218086,415.301149 C384.818624,414.574074 385.519252,415.12868 386.313297,415.710341 C388.862248,415.828702 389.402733,415.693432 389.192544,415.558162 C389.019055,415.443183 388.315091,415.331585 387.831324,415.365403 C387.31753,416.028225 387.047288,415.80503 388.018158,415.071191 C388.491916,414.012704 389.309315,414.983265 390.550428,415.20646 C390.817334,415.375548 391.097585,415.297768 391.40119,415.219987 C391.808222,415.115153 392.255289,415.013701 392.752401,415.517581 C393.122733,415.470237 393.519755,415.507436 393.940132,415.541253 C394.483953,415.588598 395.067809,415.635942 395.695038,415.504054 C397.179702,415.433038 398.537586,415.301149 399.788707,415.24366 C401.036492,415.182788 402.177514,415.189552 403.218447,415.402602 C404.369479,415.916627 405.387057,415.730631 406.30121,415.544635 C407.048546,415.392457 407.72582,415.240278 408.346376,415.470237 C409.724277,415.771212 410.791901,415.679905 411.649336,415.446564 C412.500098,415.010319 413.157354,415.274095 413.691166,414.976502 C414.772135,415.077954 415.406036,415.632561 416.330198,414.729634 C417.047507,415.483764 417.918287,415.0509 418.839113,414.891958 C419.192763,414.868286 419.54975,414.885194 419.906736,414.898721 C420.490593,414.922394 421.067777,414.949448 421.611597,414.804033 C422.215472,414.797269 422.782647,414.871667 423.263077,414.946066 C424.180566,415.088099 424.787777,415.226751 424.781104,414.797269 C424.784441,415.044137 424.911221,414.824323 425.134755,414.604509 C425.361625,414.381314 425.688584,414.161501 426.092279,414.421895 C426.882988,414.357642 427.940603,414.377932 428.988208,413.931542 C430.03915,413.627185 431.07341,412.511208 431.877464,413.089487 C432.231114,413.167267 432.528047,413.011707 432.751581,412.852764 C433.028495,412.660005 433.185303,412.467245 433.191975,412.720876 C433.205321,413.529114 432.267814,413.549404 431.537159,413.589985 C431.333643,414.327206 431.133464,414.161501 430.979993,413.995795 C430.876567,413.880816 430.793159,413.765836 430.749787,413.948451 C430.729769,413.799654 430.61967,414.519966 431.140137,414.675526 C431.266917,414.699198 431.42706,414.665381 431.623903,414.634945 C432.064298,414.560547 432.691527,414.486148 433.558971,415.040755 C434.176191,414.868286 434.920191,415.182788 435.80098,415.219987 C436.261393,414.898721 436.765178,414.959593 437.312335,415.020464 C437.799438,415.074572 438.316568,415.125299 438.863725,414.91563 C440.018093,413.945069 441.039008,414.087102 441.923133,414.043139 C442.803923,414.002558 443.554595,414.181791 444.201842,414.530111 C445.479654,414.442186 446.317071,414.584219 446.88091,414.046521 C448.005251,412.781748 448.128695,413.894343 448.652497,413.938305 C448.899385,413.316064 449.266381,413.441188 449.926973,413.745546 C450.557538,412.676914 451.491708,412.477391 452.899637,412.254195 C454.314238,412.565316 455.565359,412.663387 456.683027,412.528117 C457.246866,412.440191 457.780678,412.572079 458.281126,412.703968 C458.781575,412.835856 459.251996,412.964362 459.692391,412.8832 C461.463979,412.822329 462.811853,412.433428 463.942867,411.435812 C464.523387,411.621809 465.04719,411.598136 465.547638,411.577846 C466.038078,411.557555 466.501827,411.533883 466.972248,411.709734 C467.79632,412.504445 467.672876,412.43681 467.289199,412.369175 C467.005612,412.32183 466.578562,412.271104 466.284966,412.568698 C465.921307,411.936311 465.757827,412.687059 466.201558,412.768221 C466.641952,412.933926 467.689558,412.446955 469.798114,412.10878 C470.678903,412.091871 471.352841,412.389465 471.856626,412.683677 C472.563926,413.099632 472.944267,413.512205 473.117756,413.079342 C473.421361,412.930545 473.151119,412.4571 472.970958,412.386083 C472.800805,412.636333 472.727406,413.407371 473.36798,412.4571 C474.01189,411.483157 475.416483,411.300543 478.255694,412.463864 C479.656949,412.031 480.747927,412.298158 481.588681,412.423283 C482.409416,411.327597 483.0233,412.365793 483.460358,412.927163 C484.31112,412.906872 484.471264,412.156125 484.598044,412.588988 C484.711479,412.460482 484.774869,412.680295 485.392089,412.791893 C485.695695,412.419901 486.152771,412.947453 486.826708,413.481769 C487.167013,413.914633 487.547354,413.610276 487.991085,413.305919 C488.434816,412.99818 488.941937,412.693822 489.539139,413.130068 C490.466637,413.677911 491.30739,413.603512 492.08809,413.529114 C492.638583,413.475006 493.15905,413.420898 493.656162,413.593367 C494.880592,415.551399 495.868144,413.87067 496.75227,413.806417 C497.569669,413.481769 498.283642,413.691438 498.917544,413.901106 C499.651535,414.14121 500.275427,414.384696 500.822584,413.799654 C501.463158,413.951832 502.020324,413.880816 502.570818,413.809799 C502.924468,413.765836 503.274782,413.718492 503.641777,413.732019 C503.962064,413.968741 504.062154,413.816562 504.012109,413.664384 C503.952055,413.481769 503.665132,413.295773 503.288127,413.813181 C502.600844,414.536875 501.539894,414.381314 500.835929,414.536875 C500.528988,414.33397 500.292109,414.48953 500.178674,414.648472 C500.031876,414.854759 500.095266,415.064427 500.482279,414.448949 C501.172898,413.65762 502.934477,413.589985 506.46097,413.843616 C508.819751,414.459094 510.604684,414.885194 511.952559,414.526729 C512.616487,413.667766 513.200343,413.968741 513.697456,414.266335 C514.187895,414.560547 514.598263,414.858141 514.91855,414.029612 C516.263088,413.336354 516.573366,413.224757 517.097169,413.336354 C517.277331,413.677911 517.470837,413.593367 517.734407,413.508823 C517.86786,413.468242 518.017994,413.42428 518.194819,413.437807 C518.708613,413.025234 519.452613,413.535877 520.550264,413.671147 C521.344309,412.359029 522.101654,414.246044 522.738892,414.705962 C523.065851,415.203079 523.359448,415.318058 523.626354,415.192933 C523.909941,415.723868 524.143484,414.861522 524.363681,414.246044 C524.460434,414.374551 524.550515,414.35426 524.640596,414.330588 C524.767376,414.29677 524.887484,414.266335 525.010928,414.675526 C525.211107,415.132062 525.364578,413.948451 525.518049,413.654239 C525.831663,413.184176 526.111915,414.404986 526.318767,414.472621 C526.729134,414.300152 526.942659,414.756688 527.056094,415.301149 C527.092794,414.986647 527.119484,415.061045 527.136166,415.135444 C527.156184,415.226751 527.156184,415.32144 527.142838,414.584219 C527.149511,414.820941 527.309655,415.132062 527.619933,415.375548 C527.71335,415.375548 527.823448,415.588598 527.946892,415.801648 C528.23048,416.292001 528.58413,416.782355 528.954462,414.655236 C529.248058,415.047518 529.561673,414.888576 529.90865,414.726252 C530.282319,414.553783 530.68935,414.381314 531.14309,414.891958 C531.463377,415.953827 531.773655,415.761067 532.093942,415.564926 C532.24074,415.480382 532.387539,415.392457 532.541009,415.419511 C532.814588,414.188555 533.124866,414.421895 533.448489,414.658617 C533.66535,414.81756 533.888884,414.976502 534.105745,414.685671 C534.659575,414.519966 535.213404,412.818947 535.853978,413.975505 C536.13423,413.644093 536.434499,413.982268 536.74144,414.317061 C537.095091,414.70258 537.452077,415.088099 537.799055,414.479385 C538.206086,417.850987 538.509692,415.876046 538.853333,415.517581 C539.01014,414.986647 539.186965,415.179406 539.360454,415.372166 C539.550625,415.578453 539.744131,415.784739 539.91762,415.084718 C540.618248,413.549404 541.365584,413.201084 542.176311,414.425277 C542.940329,413.512205 543.627612,413.664384 544.241495,414.056666 C544.555109,414.29677 544.842033,414.178409 545.112275,414.06343 C545.3625,413.955214 545.599379,413.843616 545.826249,414.029612 C546.973944,414.06343 547.741298,415.091481 548.318482,413.596749 C547.871415,415.37893 550.483756,413.004943 549.979971,412.74793 C550.587182,413.177412 551.341191,414.770215 552.442178,414.350878 C552.699075,413.961978 552.989335,414.029612 553.302949,414.097247 C553.64659,414.175028 554.023595,414.249426 554.423954,413.721873 C554.600779,412.994798 554.810967,413.498678 555.031165,414.00594 C555.258035,414.526729 555.491577,415.047518 555.711774,414.212227 C556.152169,413.248429 556.65929,413.71511 557.193102,413.400608 C557.860367,414.516584 558.424205,414.709344 558.9013,414.131065 C559.148187,414.597746 559.368385,414.459094 559.568564,414.317061 C559.778753,414.171646 559.972259,414.026231 560.165766,414.577455 C560.462699,414.401605 560.719596,414.560547 560.936457,414.716107 C561.230053,414.929157 561.453587,415.138826 561.603721,414.543638 C562.150878,413.302537 562.060798,413.082723 562.047452,415.304531 C562.030771,415.947063 562.000744,415.713723 562.074143,415.483764 C562.140869,415.260568 562.304349,415.033991 562.654663,415.608888 C562.881533,416.545632 563.148439,416.068806 563.495417,415.59198 C563.725623,415.280859 563.989193,414.969738 564.302807,415.054282 C564.723184,415.571689 565.203614,415.446564 565.76078,415.32144 C566.287919,415.203079 566.881785,415.084718 567.572404,415.493909 C567.936063,414.736398 568.326413,415.199697 568.720099,415.662996 C569.057068,416.058661 569.394036,416.454325 569.71766,416.082333 C570.121355,415.564926 570.541731,415.571689 570.958772,415.578453 C571.259041,415.581834 571.562646,415.585216 571.859579,415.395838 C572.570216,415.013701 573.290862,415.013701 574.008171,415.115153 C574.725481,415.216606 575.44279,415.426274 576.150091,415.460091 C576.830701,415.886192 577.491293,415.649469 578.145212,415.416129 C578.855849,415.155734 579.559813,414.898721 580.263777,415.507436 C581.107867,416.518578 581.898576,415.794884 582.669266,415.686669 C583.423276,414.814178 584.167276,414.763452 584.887921,415.595361 C585.935527,414.99341 586.906397,414.776979 587.787186,415.568307 C588.220908,415.608888 588.65463,416.7925 589.021626,416.379927 C589.401967,416.643703 589.742272,416.356254 590.042541,415.737395 C591.320353,416.883807 592.044335,416.921006 592.020981,415.80503 C592.661555,416.237893 593.268765,416.055279 593.862631,415.872665 C594.443151,415.693432 595.010326,415.514199 595.570829,415.923391 C596.668479,415.277477 597.699403,414.570692 598.693627,415.247041 C599.664497,414.922394 600.57865,414.790506 601.429412,414.746543 C601.936533,414.455713 602.430309,414.482767 602.904067,414.509821 C603.211009,414.526729 603.507942,414.54702 603.794865,414.476003 C604.515511,414.310297 605.186112,414.388078 605.799996,414.465858 C606.423888,414.543638 606.994399,414.621418 607.504857,414.442186 C608.015314,413.420898 608.499081,413.718492 608.926131,414.012704 C609.31648,414.283244 609.663458,414.550402 609.947045,413.830089 C610.641001,414.016085 611.10475,413.843616 611.381664,413.671147 C611.608534,413.532496 611.71196,413.390462 611.715297,413.44457 C611.728642,414.06343 611.998884,413.008325 612.526023,412.900109 C613.056499,413.004943 613.85388,414.543638 614.784714,414.134447 C615.041611,414.452331 615.298508,414.323824 615.56875,414.191936 C615.808965,414.076957 616.055853,413.961978 616.319423,414.161501 C616.869916,414.070193 617.453773,413.796272 618.084338,414.421895 C618.714903,415.165879 619.385504,416.285238 620.026078,414.983265 C620.690006,414.753306 621.373953,414.381314 622.081253,414.509821 C622.551675,413.539259 623.005415,413.728637 623.422455,413.918015 C623.59928,413.999177 623.769433,414.080339 623.932913,414.070193 C624.476733,414.12092 624.950491,414.638327 625.347514,414.726252 C625.714509,413.376935 626.024787,412.511208 626.338402,414.134447 C626.501881,414.459094 626.638671,414.445567 626.762115,414.43204 C626.855532,414.421895 626.93894,414.41175 627.019012,414.553783 C627.536142,415.683287 627.686276,415.274095 627.722976,414.861522 C627.749666,414.563929 627.719639,414.266335 627.726312,414.560547 C627.739657,415.284241 628.166707,415.74754 628.837308,414.536875 C629.291048,414.435422 629.88825,414.618036 631.619801,414.246044 C632.18364,414.594364 632.777506,414.719489 633.384716,414.648472 C633.995264,414.580837 634.61582,414.313679 635.233039,413.884197 C636.487497,413.934924 637.765309,415.094863 638.85295,413.667766 C641.078278,413.491915 642.746439,413.356645 642.746439,413.356645 L643,425 L33.123444,419.934143 C33.123444,419.934143 33.0800718,416.102623 33.0300269,411.794278 C33.0266906,411.486539 33.0500448,413.461479 33.0733991,415.436419 C33.0934171,417.41136 33.1167713,419.389682 33.113435,419.075179 C33.1067623,418.432647 33.103426,418.331195 33.0900807,417.042749 C33.0700628,415.389075 33.0700628,415.402602 33.0700628,415.412747 C33.0700628,415.416129 33.0700628,415.419511 33.0700628,415.402602 C33.0667265,415.040755 33.0567175,414.090484 33.0500448,413.688056 C33.0467085,413.065815 33.0467085,413.086105 33.0366996,412.196706 C33.0333632,412.145979 33.0333632,412.08849 33.0233543,411.084111 C33.0166816,410.495687 33.0066726,409.78552 33.010009,409.930935 C33.0066726,409.619814 33,409.525125 33,409.071971" id="Fill-5" fill="#FFFFFF"></path>
                <path d="M642.915443,432.708996 C639.899594,432.363844 635.412517,432.532824 632.743624,431.378723 C632.339954,431.224124 631.946293,431.328389 631.552631,431.436249 C630.902088,431.61242 630.254882,431.784996 629.584322,430.792684 C628.907091,430.188669 628.24654,430.228218 627.579316,430.264171 C627.195663,430.289338 626.81201,430.31091 626.421684,430.210241 C625.90125,430.544607 625.37748,430.976046 624.830357,430.555393 C624.52677,429.71049 624.239864,429.893852 623.952958,430.077214 C623.706085,430.235408 623.455877,430.393603 623.188987,429.890256 C622.101414,430.343268 621.07389,429.922614 620.11976,429.865089 C619.155623,429.27186 618.26488,429.146023 617.444195,429.904638 C616.620175,430.663253 615.832851,430.296529 615.072217,429.620607 C614.361624,431.346365 613.634351,430.185074 612.953783,430.134739 C612.566793,429.37972 612.209829,429.60263 611.856201,429.825541 C611.562622,430.008902 611.27238,430.19586 610.975466,429.814755 C610.611829,429.886661 610.248193,429.847112 609.891228,429.807564 C609.637683,429.778801 609.384138,429.750039 609.13393,429.760825 C608.276548,429.800373 608.012995,430.738754 607.642686,428.890755 C605.771125,429.599035 595.208981,433.496373 594.568446,432.982241 C593.931248,432.770116 586.281533,433.766023 585.43416,433.848715 C584.940415,433.52154 584.483367,433.672544 584.049672,433.819953 C583.726068,433.931408 583.412474,434.042863 583.108887,433.95298 C582.34158,434.405992 581.640996,434.247797 581.000461,434.086007 C580.480027,433.956575 579.999627,433.827143 579.559259,434.028482 C579.06885,434.348466 578.615138,434.564186 578.194788,434.999221 C577.75442,434.510256 577.354086,434.815859 576.953752,434.244202 C576.149748,433.266272 569.907875,432.723377 569.127224,433.000217 C568.3399,432.734163 563.909538,429.11726 562.922048,429.350957 C562.444983,430.465509 552.113031,431.425463 551.522538,431.385914 C550.94539,431.971953 550.314864,432.48249 549.587591,431.267268 C547.9996,431.170194 547.105521,430.994023 546.62512,430.814256 C546.141383,430.638085 546.077997,430.461914 546.151391,430.368435 C546.271491,428.865587 546.982084,429.803969 545.99793,430.008902 C545.861149,429.936996 545.697679,430.073618 545.497512,430.206646 C545.20727,430.404389 544.840298,430.602132 544.363233,430.14912 C544.059646,430.253385 543.716026,430.181478 543.325701,430.109572 C542.705183,429.994521 541.967902,429.87947 541.113856,430.469105 C540.173071,430.415175 539.369067,429.746443 538.718524,430.303719 C538.044629,429.9334 537.524195,430.947284 537.0905,430.979642 C536.186412,429.397696 535.729364,430.080809 535.495836,431.616015 C535.205594,432.140933 535.182241,432.119361 535.135535,432.097789 C535.102174,432.079813 535.055469,432.065431 534.881991,432.263175 C534.758554,431.605229 534.608429,431.907237 534.374901,432.209245 C534.164726,432.48249 533.887828,432.75933 533.510847,432.299128 C533.273983,433.464015 532.96706,433.158412 532.610095,432.852809 C532.436617,432.7054 532.249795,432.557992 532.052964,432.579564 C531.455799,432.518443 530.72519,432.040264 529.8578,431.587253 C529.474146,431.339175 529.11051,431.421867 528.760217,431.500965 C528.309842,431.608824 527.876147,431.713089 527.449124,431.116264 C526.708506,430.997618 526.001249,429.523533 525.39074,430.745945 C524.760214,430.896949 524.193074,431.759828 523.635943,431.18098 C523.385734,430.839424 523.14887,430.882568 522.918678,430.929307 C522.645116,430.979642 522.384899,431.033572 522.121346,430.443937 C521.87781,429.897447 520.366549,430.188669 518.985397,430.479891 C518.154704,430.652467 517.370716,430.828638 516.940357,430.821447 C515.559205,430.79628 514.181389,430.771112 512.800237,430.74235 C511.936183,430.727968 510.214747,430.889758 508.243102,431.051548 C504.323166,431.371533 499.422411,431.691517 498.324829,430.623704 C497.530833,429.850708 497.454103,430.361245 497.397389,430.530225 C497.340675,430.587751 497.323994,431.260077 496.646762,430.307315 C495.989548,430.537416 494.728496,432.335081 492.11298,430.443937 C491.262271,431.055144 490.43825,431.357151 489.640918,431.34277 C488.843587,431.324793 488.069608,430.986832 487.322318,430.31091 C485.831074,429.415673 484.479947,429.821945 483.24892,431.062334 C482.731822,430.940093 482.241413,431.213338 481.764348,431.490179 C481.08378,431.88207 480.433238,432.277556 479.792703,431.50456 C477.437405,433.068529 467.369006,432.48968 465.577512,431.001214 C465.147153,430.645276 464.716794,429.634988 464.319796,430.062832 C463.922798,430.379221 463.519128,429.778801 463.132139,429.408482 C462.758494,429.775206 462.388185,429.555891 462.047901,430.177883 C461.710953,429.760825 461.630886,430.163502 461.720962,430.562583 C461.824381,431.012 462.141312,431.465011 462.541646,430.74235 C462.901947,430.929307 463.335642,430.871782 463.772673,430.810661 C464.289771,430.74235 464.813541,430.674039 465.230556,431.008404 C466.004535,431.605229 466.381516,431.364342 465.624218,430.792684 C465.233892,429.965758 464.573341,429.627797 463.559162,430.659657 C463.042064,430.641681 462.431554,430.681229 461.720962,430.976046 C461.007033,431.195361 460.19302,431.511751 459.245563,431.06593 C457.997856,431.407486 457.013702,430.641681 456.266411,430.508653 C455.525794,430.645276 455.012032,430.767517 454.671748,431.008404 C454.411531,431.087502 454.251397,431.001214 454.17133,430.918521 C454.044558,430.789089 454.117953,430.656062 454.308111,431.159408 C454.501606,432.130147 454.775168,431.813758 455.055401,431.497369 C455.242224,431.28884 455.432382,431.076716 455.609197,431.245696 C455.8127,431.029976 455.989514,431.170194 456.082925,431.306817 C456.186345,431.457821 456.199689,431.608824 456.049564,431.310412 C455.779339,431.914428 454.928629,431.242101 453.103773,431.231315 C451.535799,431.220529 450.004521,431.72028 448.583336,432.223626 C446.374827,433.000217 444.429871,433.780404 443.028702,432.640684 C442.15464,431.928809 441.343964,432.335081 440.579993,432.755735 C439.729283,432.313509 438.94196,432.432155 438.204678,432.547206 C437.594169,432.64428 437.013685,432.737758 436.459889,432.518443 C436.082908,432.230817 435.725944,432.252389 435.382324,432.270365 C435.055384,432.291937 434.74179,432.309914 434.434867,432.069027 C434.081239,431.644778 433.750963,431.860498 433.437368,432.072622 C433.190495,432.245198 432.950295,432.414179 432.713431,432.26677 C431.659218,432.216435 417.857705,433.144031 417.130432,434.226225 C416.399822,435.250894 419.702578,431.058739 419.172135,430.95807 C418.124595,431.547704 417.420674,431.461416 416.710081,431.055144 C415.30224,431.112669 415.308912,431.439844 415.068712,431.303221 C414.948612,431.040762 414.775134,431.198957 414.348111,432.033074 C413.91108,432.094194 413.210495,432.424965 412.02951,431.860498 C410.858533,432.083408 410.217999,432.277556 409.851026,432.281151 C409.470709,431.540513 409.407323,432.967859 409.347273,432.985836 C409.290559,433.061338 409.260534,432.960669 409.023669,432.86 C408.776797,432.75214 408.306404,432.647875 407.348939,432.741354 C406.711741,432.043859 406.141265,432.194863 405.590806,432.122957 C405.310572,431.820949 404.046184,432.676638 402.791804,433.532326 C401.550769,434.373634 400.323078,435.218536 400.056189,434.948887 C399.525747,434.39161 399.005312,434.316108 398.464862,434.765525 C397.901058,433.870287 395.42566,432.435751 394.785125,431.508155 C394.151263,431.01919 393.464023,430.458319 392.720069,431.12705 C392.33308,430.954474 391.926074,431.055144 391.499051,431.159408 C391.088709,431.256482 390.655013,431.357151 390.191293,431.209743 C387.378947,431.436249 387.155428,432.022288 387.038663,431.993525 C386.921899,432.122957 386.928572,432.522038 384.573274,432.087003 C383.248835,432.881572 383.432322,432.647875 384.056176,432.414179 C384.523232,432.238007 385.243833,432.061836 385.750923,432.327891 C385.971106,432.3207 386.14792,432.399797 386.248004,432.478894 C386.418146,432.615517 386.364768,432.748544 385.901048,432.464513 C385.163766,432.255984 383.405633,432.356653 379.882694,432.047455 C378.634987,431.576467 377.560757,431.66635 376.633317,431.756233 C375.80596,431.838926 375.088695,431.918023 374.464841,431.601634 C373.153748,431.932404 372.259669,431.522537 371.632479,431.475797 C370.374763,431.044358 370.167924,431.134241 369.627473,431.202552 C369.470675,430.986832 366.484851,430.990428 363.372255,430.990428 C360.283011,430.990428 357.066995,430.990428 356.359739,430.785494 C355.629129,430.569774 354.815117,430.354054 354.081171,430.533821 C353.343889,430.717182 346.548221,430.508653 345.297177,428.178879 C343.332205,429.135237 327.579064,428.804467 328.126187,428.322692 C327.315511,429.038163 326.688321,428.153712 326.217928,428.038661 C325.774225,427.812155 325.480647,428.854801 325.267135,429.897447 C325.023599,431.087502 324.883482,432.277556 324.746701,431.576467 C324.486484,431.083906 325.517344,431.296031 326.017761,431.508155 C326.451456,431.691517 326.488154,431.874879 324.963549,431.608824 C324.136192,431.191766 323.592405,430.077214 323.27881,430.479891 C322.958543,430.321696 322.828434,428.980638 322.865132,430.415175 C322.881812,429.566677 323.408918,430.436747 323.769219,430.936498 C323.482313,430.537416 319.869299,430.594941 316.296319,430.648871 C313.737517,430.692015 311.202069,430.731564 309.921001,430.605727 C309.437264,431.486583 307.368872,431.551299 306.721665,430.706397 C306.297978,431.195361 306.594893,431.936 307.325502,432.209245 C301.323829,431.957572 301.377207,431.029976 295.372198,430.778303 C292.960186,430.677634 288.766687,430.792684 286.661598,431.105478 C284.459761,431.436249 284.87344,431.432653 285.503966,431.432653 C285.917644,431.432653 286.421398,431.432653 286.354675,431.522537 C286.87511,430.817852 287.141999,431.058739 286.171189,431.838926 C285.697461,432.964264 284.880112,431.932404 283.639077,431.695112 C283.372187,431.511751 283.091954,431.594443 282.788367,431.677136 C282.381361,431.788591 281.934321,431.900046 281.440576,431.364342 C281.066931,431.414677 280.673269,431.375128 280.252919,431.335579 C279.709132,431.285245 279.125312,431.238505 278.501458,431.378723 C277.016886,431.45063 275.659087,431.590848 274.411379,431.655564 C273.160336,431.72028 272.02272,431.709494 270.981852,431.482988 C269.834228,430.936498 268.820048,431.134241 267.905953,431.331984 C267.155326,431.493774 266.471423,431.655564 265.840897,431.407486 C257.824209,429.5487 250.751643,432.906739 243.158642,433.280653 C242.938459,433.291439 238.661558,431.921618 237.537287,431.817354 C236.459721,431.716684 235.485575,432.047455 234.52811,432.37463 C233.09358,432.863595 231.699083,433.356155 230.051042,432.406988 C228.776645,432.504062 227.942616,432.349463 227.375476,432.92112 C226.247869,434.265774 226.127769,433.086505 225.607335,433.036171 C225.35379,433.697712 224.990153,433.564684 224.332938,433.241105 C223.699076,434.377229 222.764964,434.589354 221.360459,434.826645 C219.952618,434.495875 218.698238,434.39161 217.583975,434.535424 C217.023508,434.628902 216.426343,433.809167 215.855867,432.989431 C215.288727,432.169696 214.751613,431.353556 214.311245,431.439844 C212.543104,431.50456 211.195313,431.921618 210.064369,432.978645 C209.483885,432.784498 208.960115,432.80607 208.463033,432.827642 C207.972624,432.849214 207.505568,432.874381 207.038512,432.687424 C206.217827,431.842521 206.341264,431.914428 206.724917,431.986334 C207.008487,432.036669 207.43551,432.090599 207.729088,431.77421 C208.089388,432.446537 208.256194,431.648373 207.815827,431.562085 C207.372123,431.385914 206.327919,431.907237 204.22283,432.263175 C203.342095,432.281151 202.671536,431.964762 202.167782,431.651968 C201.463862,431.209743 201.08688,430.771112 200.913402,431.23491 C200.609816,431.389509 200.880041,431.896451 201.056855,431.971953 C201.226997,431.702303 201.303728,430.882568 200.659858,431.896451 C200.015987,432.928311 198.611482,433.122459 195.785792,431.885665 C194.384623,432.345867 193.297049,432.065431 192.456348,431.928809 C191.632327,433.093696 191.025154,431.98993 190.594795,431.3967 C189.744085,431.411081 189.580616,432.216435 189.457179,431.752638 C189.340415,431.88926 189.280365,431.651968 188.663184,431.536918 C188.359597,431.932404 187.909221,431.371533 187.235326,430.80347 C186.901714,430.343268 186.521397,430.666848 186.077694,430.990428 C185.630654,431.317603 185.123564,431.641182 184.529736,431.177385 C183.608968,430.594941 182.768266,430.674039 181.990951,430.753136 C181.437156,430.810661 180.920058,430.864591 180.426313,430.684825 C179.215302,428.606723 178.22114,430.393603 177.337069,430.458319 C176.523057,430.80347 175.812464,430.58056 175.181938,430.357649 C174.451328,430.098786 173.827475,429.839922 173.277016,430.465509 C172.643153,430.300124 172.086022,430.375626 171.535563,430.454723 C171.185271,430.501463 170.834978,430.551797 170.468006,430.537416 C170.147739,430.285743 170.047655,430.447533 170.097697,430.605727 C170.157747,430.80347 170.441317,431.001214 170.818298,430.447533 C171.51221,429.681727 172.569759,429.847112 173.270343,429.681727 C173.57393,429.897447 173.810794,429.728467 173.924222,429.563081 C174.074347,429.343766 174.010961,429.120856 173.620636,429.775206 C172.926723,430.612918 171.175262,430.68842 167.65566,430.41877 C165.307034,429.76442 163.53222,429.307813 162.184429,429.692513 C161.51387,430.602132 160.936722,430.285743 160.442976,429.969354 C159.952567,429.652965 159.548897,429.340171 159.225294,430.217432 C157.880839,430.954474 157.567244,431.076716 157.04681,430.954474 C156.869996,430.591346 156.676501,430.681229 156.416284,430.771112 C156.282839,430.817852 156.129378,430.860996 155.952564,430.846614 C155.438802,431.285245 154.70152,430.74235 153.607274,430.598537 C152.806606,431.993525 152.065989,429.990926 151.432126,429.501961 C151.108523,428.973447 150.814945,428.851206 150.548056,428.984233 C150.271158,428.416171 150.030958,429.33298 149.810774,429.98733 C149.714027,429.850708 149.620615,429.875875 149.533876,429.897447 C149.407104,429.9334 149.287004,429.969354 149.166903,429.534319 C148.970073,429.048949 148.806603,430.303719 148.653142,430.616513 C148.339547,431.116264 148.065985,429.821945 147.859146,429.750039 C147.45214,429.929805 148.25948,432.029478 148.152724,431.45063 C148.106019,431.806568 147.85581,431.123455 147.602265,430.440342 C147.318695,429.663751 147.031789,428.890755 147.038461,429.627797 C147.038461,429.501961 147.248637,430.001712 147.425451,430.497867 C147.602265,430.997618 147.742382,431.500965 147.588921,431.367937 C147.472156,431.367937 147.18525,430.645276 146.844967,429.919019 C146.284499,428.73256 145.577242,427.542506 145.233622,429.555891 C144.633122,428.689416 141.87749,428.671439 141.006763,427.628793 C140.696504,426.49986 140.386246,426.704794 140.062642,426.913323 C139.915853,427.003206 139.765728,427.096685 139.615603,427.067922 C139.335369,428.376622 139.028446,428.124949 138.708179,427.873276 C138.491332,427.704295 138.271148,427.53891 138.050964,427.844513 C137.497169,428.020685 136.936701,429.832731 136.306175,428.603128 C136.022606,428.951875 135.725691,428.595937 135.422105,428.236404 C135.075149,427.826537 134.718184,427.416669 134.367892,428.067424 C133.987575,424.486475 133.670644,426.582552 133.327024,426.963657 C133.163554,427.528124 132.993412,427.32319 132.819934,427.118257 C132.629775,426.898941 132.439617,426.676031 132.262803,427.420264 C131.555546,429.052544 130.80492,429.419268 130.007588,428.124949 C129.383734,428.908731 128.092657,428.890755 126.731522,428.872778 C124.916675,428.847611 122.971719,428.822443 122.297823,430.68842 C122.134354,429.214334 118.64144,428.743346 117.820755,430.088 C117.630597,429.71049 117.440438,429.33298 117.246943,428.95547 C114.648109,430.016093 113.900819,433.359751 112.643103,431.382319 C112.306155,431.749042 111.969207,432.115766 111.63226,432.48249 C109.627254,431.936 105.483797,431.202552 103.77237,432.176887 C103.058441,432.583159 102.344512,432.583159 101.627247,432.475299 C100.913318,432.367439 100.202725,432.148124 99.498805,432.108575 C98.8249095,431.659159 98.1643585,431.907237 97.5104797,432.155315 C96.7998869,432.42856 96.0993025,432.701805 95.4020542,432.058241 C94.5680252,430.986832 93.7773656,431.756233 93.0067228,431.867688 C92.2494244,432.795284 91.5088066,432.845618 90.7948777,431.964762 C89.7473372,432.604731 88.7798635,432.834832 87.9091371,431.99712 C87.4787782,431.950381 87.0584275,430.692015 86.6881186,431.134241 C86.3111375,430.853805 85.9675175,431.159408 85.6639309,431.813758 C84.402879,430.598537 83.6822779,430.558988 83.6956223,431.741852 C83.0617603,431.281649 82.4545871,431.475797 81.8640945,431.669945 C81.2802742,431.856902 80.7164705,432.047455 80.1626752,431.616015 C79.0617569,432.302723 78.030897,433.050552 77.0467427,432.331486 C76.0759329,432.680233 75.1685092,432.820451 74.3177996,432.863595 C73.8107099,433.172793 73.3203008,433.144031 72.8532446,433.115268 C72.5463219,433.097291 72.2460714,433.079315 71.9591654,433.154817 C71.2385643,433.330988 70.4278881,433.057743 69.6705897,432.784498 C68.9032829,432.511252 68.1926902,432.234412 67.6822644,432.424965 C67.0517384,433.748046 65.2168745,433.507159 63.6755888,433.266272 C62.8148708,433.129649 62.044228,432.996622 61.6238773,433.133245 C60.0892638,433.640186 58.6447255,433.287844 57.5738322,432.935501 C56.6130307,432.619112 55.9558158,432.302723 55.8090267,432.611922 C55.1484757,432.856404 54.4645719,433.251891 53.7606513,433.111673 C53.2802506,434.143533 52.8298749,433.942194 52.3995159,433.740856 C52.2126934,433.650972 52.0358792,433.564684 51.855729,433.57547 C50.7981801,433.399299 48.929955,432.971455 47.9458007,433.694116 C47.0417132,433.072124 43.1584739,432.69821 43.10176,432.766521 L39.9624746,432.687424 C35.3853231,433.162007 34.1542962,433.366941 33.1467891,432.694614 C33.1467891,432.694614 33.1000835,428.265167 33.0834029,426.780295 C33.0400334,422.566568 33.0467056,423.217323 33,419 L642.83204,424.389401 C642.83204,424.389401 642.815359,423.594833 642.90877,428.189665 C642.922115,428.847611 642.935459,429.512747 642.948804,430.181478 C642.962148,430.864591 642.965484,430.972451 643,432.349463 C643.028871,434.089603 642.865401,426.057634 642.865401,426.043253 C642.90877,428.265167 642.938796,430.487081 642.915443,432.708996" id="Fill-6" fill="#FFFFFF"></path>
                <polygon id="Fill-7" fill="#F7F0B0" points="426 252 498 252 498 0 426 0"></polygon>
                <polyline id="Fill-54" fill="#BEC2F2" points="243.674468 22 250 96.6931482 9.32218898 119 3 44.3068518 243.674468 22"></polyline>
                <g id="Group-57" transform="translate(0.000000, 39.000000)">
                    <mask id="mask-2" fill="white">
                        <use xlink:href="#path-1"></use>
                    </mask>
                    <g id="Clip-56"></g>
                    <polyline id="Fill-55" fill="url(#radialGradient-3)" mask="url(#mask-2)" points="3 6.085 20 4.225 3 6.085"></polyline>
                </g>
                <polyline id="Fill-59" fill="#D0D5ED" points="29 42.2035 29 42.2035 47 40.7965 29 42.2035"></polyline>
                <polyline id="Fill-60" fill="#A6ABEC" points="9.31090642 119 3 45.0190112 20.5143506 43.4079421 29.0212255 42.6249278 46.6857562 41 53 114.980989 9.31090642 119"></polyline>
                <polygon id="Fill-87" fill="#F7F0B0" points="426 252 498 252 498 0 426 0"></polygon>
                <polygon id="Fill-88" fill="#F3E994" points="426 46 498 46 498 0 426 0"></polygon>
                <polyline id="Fill-145" fill="#F5CEDE" points="632 252.632268 561.103333 262 531 11.3642365 601.893333 2 632 252.632268"></polyline>
                <polyline id="Fill-149" fill="#EADAE3" points="606.9835 48 604.0165 20 606.9835 48"></polyline>
                <polyline id="Fill-150" fill="#F0BACF" points="536.446816 57 531 11.3742843 601.549867 2 607 47.6257157 536.446816 57"></polyline>
            </g>
        </g>
    </g>
</svg>